<svg width="1014" height="1014" viewBox="0 0 1014 1014" fill="none" xmlns="http://www.w3.org/2000/svg">
<path d="M402.5 703C376.5 703 359.537 674.5 375 641C390.463 607.5 494.013 585.789 508 629.5C512 642 514.5 643 518 676" stroke="#305295" stroke-width="23"/>
<circle cx="507" cy="507" r="495.5" stroke="#305295" stroke-width="23"/>
<mask id="path-3-inside-1_1083_959" fill="white">
<path fill-rule="evenodd" clip-rule="evenodd" d="M527 139H466V180L426 180L426 241H466V280H527V241H567V180L527 180V139Z"/>
</mask>
<path d="M466 139V116H443V139H466ZM527 139H550V116H527V139ZM466 180L466 203L489 203V180H466ZM426 180L426 157L403 157L403 180H426ZM426 241H403L403 264H426V241ZM466 241H489V218H466V241ZM466 280H443V303H466V280ZM527 280V303H550V280H527ZM527 241V218H504V241H527ZM567 241V264H590V241H567ZM567 180H590V157L567 157V180ZM527 180H504V203L527 203V180ZM466 162H527V116H466V162ZM489 180V139H443V180H489ZM426 203L466 203L466 157L426 157L426 203ZM449 241L449 180H403L403 241H449ZM466 218H426V264H466V218ZM489 280V241H443V280H489ZM527 257H466V303H527V257ZM504 241V280H550V241H504ZM567 218H527V264H567V218ZM544 180V241H590V180H544ZM527 203L567 203V157L527 157V203ZM504 139V180H550V139H504Z" fill="#305295" mask="url(#path-3-inside-1_1083_959)"/>
<path d="M276.151 490.283C276.151 490.283 289 515.952 325.795 515.952C336.833 515.952 346.63 508.5 346.63 508.5M346.63 508.5C346.63 508.5 383.091 482.747 383.091 463.431C383.091 446.63 366.868 404.34 366.868 404.34C366.868 404.34 391.424 400.93 390.742 375.01C390.06 349.091 327.265 330.214 286.234 342.701C247.297 354.551 210.522 414.32 210.522 414.32C210.522 414.32 202.773 400.568 194.152 397.268C176.937 390.678 160.832 407.966 156.637 425.916C153.711 438.436 154.612 449.341 164.14 457.974C175.392 468.168 203.019 457.974 203.019 457.974C203.019 457.974 199.371 486.14 210.522 496.853C217.408 503.469 233.031 506.402 233.031 506.402V526.865C233.031 526.865 128.23 532.991 86.3821 576.658C50.0549 614.563 53.591 642.479 46.5 694.5M346.63 508.5V521C346.63 521 373.5 515.952 402 515.952C436.1 515.952 439.06 526.775 462.361 551.671C488.964 580.096 531.931 655.711 515 702.5M515 702.5C498.069 749.289 484.5 770 418.025 787.674C351.55 805.348 244.617 811.76 164.14 771.058C123.288 750.396 125.943 711.711 125.943 711.711M515 702.5C532 645.5 523.707 583.047 573.5 551.671C623.293 520.295 702.457 526.865 702.457 526.865" stroke="#305295" stroke-width="23"/>
<path d="M759.07 521.454C832.5 521.454 914.423 521.455 930.5 572.499C970.5 699.5 965 696.5 965 696.5" stroke="#305295" stroke-width="23"/>
<path d="M169.745 660.224C169.745 660.224 194.457 709.157 220.849 714.103C239.102 717.523 251.918 714.255 266.968 701.556C283.048 687.987 292.521 649.892 292.521 649.892" stroke="#305295" stroke-width="23"/>
<path d="M768.5 526C768.5 526 756.438 511.014 765.89 501.879C784.935 483.473 811.02 461.636 810.792 422.008C810.633 394.408 803.394 380.953 786.214 359.351C754.486 319.458 694.101 317.775 658.803 354.548C629.565 385.007 631.093 442.193 645.843 467.092C660.592 491.99 696.097 498.205 699.593 503.5L690.5 535" stroke="#305295" stroke-width="23"/>
</svg>
