<svg width="65" height="64" viewBox="0 0 65 64" fill="none" xmlns="http://www.w3.org/2000/svg">
<rect x="1.1001" y="0.5" width="63" height="63" rx="3.5" fill="white" stroke="#004A7C"/>
<g clip-path="url(#clip0_782_565)">
<path d="M51.8033 20.3091H13.3969C12.9569 20.3091 12.6001 20.6658 12.6001 21.1059V42.894C12.6001 43.3341 12.9569 43.6908 13.3969 43.6908H51.8033C52.2433 43.6908 52.6001 43.3341 52.6001 42.894V21.1059C52.6001 20.6658 52.2433 20.3091 51.8033 20.3091ZM51.0065 42.0973H14.1937V21.9027H51.0064L51.0065 42.0973Z" fill="#004A7C"/>
<path d="M47.3678 36.4844H36.8973C36.4573 36.4844 36.1005 36.8411 36.1005 37.2812C36.1005 37.7213 36.4572 38.078 36.8973 38.078H47.3678C47.8078 38.078 48.1646 37.7213 48.1646 37.2812C48.1646 36.8411 47.8078 36.4844 47.3678 36.4844Z" fill="#004A7C"/>
<path d="M47.3678 31.3682H36.8973C36.4573 31.3682 36.1005 31.7249 36.1005 32.165C36.1005 32.605 36.4572 32.9618 36.8973 32.9618H47.3678C47.8078 32.9618 48.1646 32.605 48.1646 32.165C48.1646 31.7249 47.8078 31.3682 47.3678 31.3682Z" fill="#004A7C"/>
<path d="M47.4109 26.2517H46.7834C46.3434 26.2517 45.9866 26.6084 45.9866 27.0485C45.9866 27.4886 46.3434 27.8453 46.7834 27.8453H47.4109C47.8509 27.8453 48.2077 27.4886 48.2077 27.0485C48.2077 26.6085 47.8509 26.2517 47.4109 26.2517Z" fill="#004A7C"/>
<path d="M43.7555 26.2517H36.8973C36.4573 26.2517 36.1005 26.6084 36.1005 27.0485C36.1005 27.4886 36.4572 27.8453 36.8973 27.8453H43.7555C44.1955 27.8453 44.5523 27.4886 44.5523 27.0485C44.5523 26.6085 44.1955 26.2517 43.7555 26.2517Z" fill="#004A7C"/>
<path d="M25.1773 32.7854C20.7687 32.7854 17.182 35.7317 17.182 39.3529C17.182 39.793 17.5387 40.1497 17.9788 40.1497H32.3758C32.8158 40.1497 33.1726 39.793 33.1726 39.3529C33.1727 35.7315 29.5861 32.7854 25.1773 32.7854ZM18.8577 38.5562C19.3051 36.4069 21.5314 34.7148 24.3211 34.4238V36.1999C24.3211 36.64 24.6779 36.9967 25.1179 36.9967C25.5579 36.9967 25.9147 36.64 25.9147 36.1999V34.4131C28.7596 34.668 31.0433 36.3765 31.497 38.5562H18.8577Z" fill="#004A7C"/>
<path d="M25.1101 23.7244C22.8254 23.7244 20.9667 25.5831 20.9667 27.8678C20.9667 30.1525 22.8254 32.0112 25.1101 32.0112C27.3948 32.0112 29.2535 30.1525 29.2535 27.8678C29.2535 25.5831 27.3948 23.7244 25.1101 23.7244ZM25.1101 30.4176C23.7041 30.4176 22.5603 29.2737 22.5603 27.8678C22.5603 26.4619 23.7042 25.318 25.1101 25.318C26.516 25.318 27.6599 26.4619 27.6599 27.8678C27.6599 29.2737 26.516 30.4176 25.1101 30.4176Z" fill="#004A7C"/>
</g>
<defs>
<clipPath id="clip0_782_565">
<rect width="40" height="40" fill="white" transform="translate(12.6001 12)"/>
</clipPath>
</defs>
</svg>
