<svg width="20" height="20" viewBox="0 0 20 20" fill="none" xmlns="http://www.w3.org/2000/svg">
<g clip-path="url(#clip0_865_47)">
<path d="M2.92984 17.07C1.97473 16.1475 1.21291 15.0441 0.688821 13.824C0.164731 12.604 -0.111131 11.2918 -0.122669 9.964C-0.134207 8.63621 0.11881 7.31941 0.621618 6.09045C1.12443 4.86148 1.86696 3.74496 2.80589 2.80604C3.74481 1.86711 4.86133 1.12458 6.09029 0.621771C7.31926 0.118962 8.63605 -0.134055 9.96385 -0.122517C11.2916 -0.110979 12.6038 0.164884 13.8239 0.688974C15.0439 1.21306 16.1474 1.97489 17.0698 2.92999C18.8914 4.81601 19.8994 7.34203 19.8766 9.964C19.8538 12.586 18.8021 15.0941 16.948 16.9482C15.0939 18.8023 12.5858 19.8539 9.96385 19.8767C7.34188 19.8995 4.81586 18.8916 2.92984 17.07ZM4.33984 15.66C5.84096 17.1611 7.87692 18.0044 9.99984 18.0044C12.1227 18.0044 14.1587 17.1611 15.6598 15.66C17.161 14.1589 18.0043 12.1229 18.0043 9.99999C18.0043 7.87708 17.161 5.84111 15.6598 4.33999C14.1587 2.83886 12.1227 1.99554 9.99984 1.99554C7.87692 1.99554 5.84096 2.83886 4.33984 4.33999C2.83871 5.84111 1.99539 7.87708 1.99539 9.99999C1.99539 12.1229 2.83871 14.1589 4.33984 15.66ZM14.2398 7.16999L11.4098 9.99999L14.2398 12.83L12.8298 14.24L9.99984 11.41L7.16984 14.24L5.75984 12.83L8.58984 9.99999L5.75984 7.16999L7.16984 5.75999L9.99984 8.58999L12.8298 5.75999L14.2398 7.16999Z" fill="#E71919"/>
</g>
<defs>
<clipPath id="clip0_865_47">
<rect width="20" height="20" fill="white"/>
</clipPath>
</defs>
</svg>
