<svg width="42" height="54" viewBox="0 0 42 54" fill="none" xmlns="http://www.w3.org/2000/svg">
<path opacity="0.4" d="M39.9867 19.3196C38.9467 19.3196 38.1201 20.1463 38.1201 21.1863V25.3996C38.1201 34.8396 30.4401 42.5196 21.0001 42.5196C11.5601 42.5196 3.88006 34.8396 3.88006 25.3996V21.1596C3.88006 20.1196 3.0534 19.293 2.0134 19.293C0.973396 19.293 0.146729 20.1196 0.146729 21.1596V25.373C0.146729 36.2263 8.4934 45.1596 19.1334 46.1196V51.7996C19.1334 52.8396 19.9601 53.6663 21.0001 53.6663C22.0401 53.6663 22.8667 52.8396 22.8667 51.7996V46.1196C33.4801 45.1863 41.8534 36.2263 41.8534 25.373V21.1596C41.8267 20.1463 41.0001 19.3196 39.9867 19.3196Z" fill="#004A7C"/>
<path d="M21 0.333008C14.4934 0.333008 9.21338 5.61301 9.21338 12.1197V25.773C9.21338 32.2797 14.4934 37.5597 21 37.5597C27.5067 37.5597 32.7867 32.2797 32.7867 25.773V12.1197C32.7867 5.61301 27.5067 0.333008 21 0.333008ZM24.4934 18.8663C24.3067 19.5597 23.6934 20.013 23 20.013C22.8667 20.013 22.7334 19.9863 22.6 19.9597C21.56 19.6663 20.4667 19.6663 19.4267 19.9597C18.5734 20.1997 17.7467 19.693 17.5334 18.8663C17.2934 18.0397 17.8 17.1863 18.6267 16.973C20.2 16.5463 21.8534 16.5463 23.4267 16.973C24.2267 17.1863 24.7067 18.0397 24.4934 18.8663ZM25.9067 13.693C25.6667 14.333 25.08 14.7063 24.44 14.7063C24.2534 14.7063 24.0934 14.6797 23.9067 14.6263C22.04 13.933 19.96 13.933 18.0934 14.6263C17.2934 14.9197 16.3867 14.493 16.0934 13.693C15.8 12.893 16.2267 11.9863 17.0267 11.7197C19.5867 10.7863 22.4134 10.7863 24.9734 11.7197C25.7734 12.013 26.2 12.893 25.9067 13.693Z" fill="#004A7C"/>
</svg>
