<svg width="24" height="24" viewBox="0 0 24 24" fill="none" xmlns="http://www.w3.org/2000/svg">
<path d="M5.40565 17.5735H5.53053V22.5601C5.53053 22.8031 5.71162 23 5.93546 23H12.854C13.0778 23 13.2589 22.8031 13.2589 22.5601V17.5735H13.3838C13.6076 17.5735 13.7887 17.3766 13.7887 17.1336C13.7887 16.6365 13.6304 16.1824 13.3733 15.8136H14.1841L16.6328 20.7784C16.8819 21.2846 17.4683 21.6663 17.9968 21.6663C18.3449 21.6663 18.6628 21.4749 18.8472 21.1543C19.0315 20.8337 19.0501 20.4396 18.8975 20.0996V20.0998L16.0998 13.872C15.8197 13.2474 15.2254 12.844 14.5853 12.844H12.1688V9.39721H16.2797C16.9587 9.39721 17.5113 8.79688 17.5113 8.05894C17.5113 7.321 16.9587 6.72046 16.2797 6.72046H8.73646C7.84306 6.72046 7.11651 7.51003 7.11651 8.48042V13.504C7.11651 14.0465 7.29681 14.5393 7.58596 14.9341H7.02508C5.90865 14.9341 5 15.921 5 17.1342C5.0002 17.3769 5.18149 17.5739 5.40533 17.5739L5.40565 17.5735ZM12.4493 22.1202H6.34044V17.5735H12.4493V22.1202ZM7.9269 13.5034V8.47983C7.9269 7.99452 8.29028 7.59976 8.73696 7.59976H16.2802C16.5127 7.59976 16.7017 7.80532 16.7017 8.05818C16.7017 8.31083 16.5127 8.51639 16.2802 8.51639H11.7641C11.5403 8.51639 11.3592 8.71335 11.3592 8.95633V13.2832C11.3592 13.5261 11.5403 13.7231 11.7641 13.7231H14.5856C14.9179 13.7231 15.2267 13.9325 15.3723 14.2568L18.1701 20.4852V20.4854C18.2108 20.5761 18.1815 20.651 18.1606 20.6875C18.1392 20.7243 18.0901 20.7858 17.9973 20.7858C17.7703 20.7858 17.4546 20.5802 17.3475 20.3628L14.7843 15.1655C14.7135 15.0226 14.5763 14.9333 14.4271 14.9333H9.24291C8.51737 14.9333 7.92675 14.2917 7.92675 13.5032L7.9269 13.5034ZM7.0256 15.8136H11.7643C12.2923 15.8136 12.7427 16.1815 12.91 16.6936H12.8542L5.93569 16.6934H5.87987C6.04711 16.1812 6.49755 15.8136 7.02559 15.8136L7.0256 15.8136Z" fill="#072051" stroke="#072051" stroke-width="0.1"/>
<path d="M10.1537 6.13342C11.4566 6.13342 12.5161 4.98198 12.5161 3.56671C12.5161 2.15122 11.4564 1 10.1537 1C8.85085 1 7.79102 2.15144 7.79102 3.56671C7.79102 4.98198 8.85106 6.13342 10.1537 6.13342ZM10.1537 1.8799C11.0097 1.8799 11.7062 2.63655 11.7062 3.56677C11.7062 4.49676 11.0097 5.25363 10.1537 5.25363C9.29758 5.25363 8.60092 4.49698 8.60092 3.56677C8.60111 2.63661 9.29758 1.8799 10.1537 1.8799Z" fill="#072051" stroke="#072051" stroke-width="0.1"/>
</svg>
