<svg width="70" height="70" viewBox="0 0 70 70" fill="none" xmlns="http://www.w3.org/2000/svg">
<mask id="mask0_852_303" style="mask-type:luminance" maskUnits="userSpaceOnUse" x="5" y="14" width="36" height="46">
<path fill-rule="evenodd" clip-rule="evenodd" d="M5.83374 14.584H40.892V59.7979H5.83374V14.584Z" fill="white"/>
</mask>
<g mask="url(#mask0_852_303)">
<path fill-rule="evenodd" clip-rule="evenodd" d="M32.6904 18.9766C30.1587 18.9766 26.9212 21.5462 24.2262 23.687C21.6333 25.7433 19.5858 27.3708 17.5441 27.5224C16.6399 27.5866 15.8641 27.6158 15.1816 27.6391C13.0029 27.712 12.4516 27.7616 11.4687 28.5724C10.1795 29.6312 10.1999 33.9566 10.2116 36.5378L10.2145 37.1824V37.1941L10.2116 37.8387C10.1999 40.4229 10.1795 44.7483 11.4687 45.807C12.4487 46.6179 12.9999 46.6645 15.1729 46.7433C15.8583 46.7637 16.637 46.7929 17.5441 46.8599C19.5858 47.0087 21.6333 48.6362 24.2262 50.6924C27.4433 53.2445 31.4274 56.4091 34.0699 55.0937C36.2808 53.1774 36.517 48.0966 36.517 37.1883C36.517 26.2799 36.2808 21.202 34.0699 19.2828C33.6412 19.0699 33.1774 18.9766 32.6904 18.9766M32.7195 59.7983C28.6624 59.7983 24.6404 56.6045 21.5079 54.1195C20.0933 52.9966 17.9554 51.2991 17.2174 51.2233C16.3804 51.1591 15.657 51.1329 15.0183 51.1154C12.6908 51.0308 10.8504 50.9695 8.68619 49.1845C5.79286 46.8016 5.81911 41.8199 5.83661 37.8183L5.83953 37.1883L5.83661 36.5583C5.81911 32.5566 5.79286 27.5778 8.68619 25.1949C10.8533 23.4099 12.6966 23.3458 15.0299 23.267C15.6658 23.2437 16.3862 23.2203 17.2233 23.1591C17.9554 23.0803 20.0933 21.3828 21.5079 20.2599C25.5883 17.0195 31.1766 12.5949 36.3829 15.5612C36.4733 15.6166 36.5637 15.6749 36.6454 15.742C40.7112 18.9358 40.892 24.9587 40.892 37.1883C40.892 49.4208 40.7112 55.4437 36.6454 58.6404C36.5637 58.7045 36.4733 58.7658 36.3799 58.8183C35.1724 59.5066 33.9445 59.7983 32.7195 59.7983" fill="#25C8D2"/>
</g>
<mask id="mask1_852_303" style="mask-type:luminance" maskUnits="userSpaceOnUse" x="55" y="17" width="11" height="41">
<path fill-rule="evenodd" clip-rule="evenodd" d="M55.6614 17.2188H65.5783V57.1547H55.6614V17.2188Z" fill="white"/>
</mask>
<g mask="url(#mask1_852_303)">
<path fill-rule="evenodd" clip-rule="evenodd" d="M57.848 57.1547C57.4163 57.1547 56.9818 57.0263 56.5997 56.7609C55.608 56.0726 55.363 54.7105 56.0543 53.7159C63.0338 43.6826 63.0338 30.7063 56.0543 20.6555C55.363 19.6638 55.608 18.3018 56.6026 17.6105C57.5943 16.9193 58.9534 17.1672 59.6447 18.1618C67.5576 29.5484 67.5576 44.8405 59.6447 56.2184C59.2188 56.828 58.5393 57.1547 57.848 57.1547" fill="#25C8D2"/>
</g>
<path fill-rule="evenodd" clip-rule="evenodd" d="M50.5478 50.1282C50.1773 50.1282 49.804 50.0349 49.4598 49.8365C48.4128 49.2357 48.0511 47.897 48.6519 46.8528C52.0673 40.8999 52.0673 33.4974 48.6519 27.527C48.0511 26.477 48.4157 25.1411 49.4628 24.5403C50.5128 23.9511 51.8457 24.304 52.4465 25.3511C56.6319 32.6661 56.6319 41.737 52.4465 49.0286C52.0411 49.7345 51.3061 50.1282 50.5478 50.1282Z" fill="#25C8D2"/>
</svg>
