<svg width="70" height="70" viewBox="0 0 70 70" fill="none" xmlns="http://www.w3.org/2000/svg">
<mask id="mask0_791_1336" style="mask-type:luminance" maskUnits="userSpaceOnUse" x="5" y="14" width="36" height="46">
<path fill-rule="evenodd" clip-rule="evenodd" d="M5.83362 14.584H40.8919V59.7979H5.83362V14.584Z" fill="white"/>
</mask>
<g mask="url(#mask0_791_1336)">
<path fill-rule="evenodd" clip-rule="evenodd" d="M32.6902 18.9766C30.1586 18.9766 26.9211 21.5462 24.2261 23.687C21.6332 25.7433 19.5857 27.3708 17.544 27.5224C16.6398 27.5866 15.864 27.6158 15.1815 27.6391C13.0027 27.712 12.4515 27.7616 11.4686 28.5724C10.1794 29.6312 10.1998 33.9566 10.2115 36.5378L10.2144 37.1824V37.1941L10.2115 37.8387C10.1998 40.4228 10.1794 44.7483 11.4686 45.807C12.4486 46.6179 12.9998 46.6645 15.1727 46.7433C15.8582 46.7637 16.6369 46.7929 17.544 46.8599C19.5857 47.0087 21.6332 48.6362 24.2261 50.6924C27.4432 53.2445 31.4273 56.4091 34.0698 55.0937C36.2807 53.1774 36.5169 48.0966 36.5169 37.1883C36.5169 26.2799 36.2807 21.202 34.0698 19.2828C33.6411 19.0699 33.1773 18.9766 32.6902 18.9766ZM32.7194 59.7983C28.6623 59.7983 24.6402 56.6045 21.5077 54.1195C20.0932 52.9966 17.9552 51.2991 17.2173 51.2233C16.3802 51.1591 15.6569 51.1329 15.0182 51.1154C12.6907 51.0308 10.8502 50.9695 8.68607 49.1845C5.79274 46.8016 5.81899 41.8199 5.83649 37.8183L5.8394 37.1883L5.83649 36.5583C5.81899 32.5566 5.79274 27.5778 8.68607 25.1949C10.8532 23.4099 12.6965 23.3458 15.0298 23.267C15.6657 23.2437 16.3861 23.2204 17.2232 23.1591C17.9552 23.0803 20.0932 21.3828 21.5077 20.2599C25.5882 17.0195 31.1765 12.5949 36.3827 15.5612C36.4732 15.6166 36.5636 15.6749 36.6452 15.742C40.7111 18.9358 40.8919 24.9587 40.8919 37.1883C40.8919 49.4208 40.7111 55.4437 36.6452 58.6404C36.5636 58.7045 36.4732 58.7658 36.3798 58.8183C35.1723 59.5066 33.9444 59.7983 32.7194 59.7983Z" fill="#004878"/>
</g>
<mask id="mask1_791_1336" style="mask-type:luminance" maskUnits="userSpaceOnUse" x="55" y="17" width="11" height="41">
<path fill-rule="evenodd" clip-rule="evenodd" d="M55.6613 17.2188H65.5782V57.1547H55.6613V17.2188Z" fill="white"/>
</mask>
<g mask="url(#mask1_791_1336)">
<path fill-rule="evenodd" clip-rule="evenodd" d="M57.8479 57.1547C57.4162 57.1547 56.9816 57.0263 56.5996 56.7609C55.6079 56.0726 55.3629 54.7105 56.0541 53.7159C63.0337 43.6826 63.0337 30.7063 56.0541 20.6555C55.3629 19.6638 55.6079 18.3018 56.6025 17.6105C57.5941 16.9193 58.9533 17.1672 59.6446 18.1618C67.5575 29.5484 67.5575 44.8405 59.6446 56.2184C59.2187 56.828 58.5391 57.1547 57.8479 57.1547Z" fill="#004878"/>
</g>
<path fill-rule="evenodd" clip-rule="evenodd" d="M50.5475 50.1282C50.1771 50.1282 49.8038 50.0349 49.4596 49.8365C48.4125 49.2357 48.0508 47.897 48.6517 46.8528C52.0671 40.8999 52.0671 33.4974 48.6517 27.527C48.0508 26.477 48.4154 25.1411 49.4625 24.5403C50.5125 23.9511 51.8454 24.304 52.4463 25.3511C56.6317 32.6661 56.6317 41.737 52.4463 49.0286C52.0408 49.7345 51.3058 50.1282 50.5475 50.1282Z" fill="#004878"/>
</svg>
