<svg width="60" height="60" viewBox="0 0 60 60" fill="none" xmlns="http://www.w3.org/2000/svg">
<path d="M40 15V13C40 10.1997 40 8.79961 39.455 7.73005C38.9757 6.78924 38.2108 6.02433 37.27 5.54497C36.2004 5 34.8003 5 32 5H28C25.1997 5 23.7996 5 22.73 5.54497C21.7892 6.02433 21.0243 6.78924 20.545 7.73005C20 8.79961 20 10.1997 20 13V15M25 28.75V41.25M35 28.75V41.25M7.5 15H52.5M47.5 15V43C47.5 47.2004 47.5 49.3006 46.6825 50.9049C45.9635 52.3161 44.8161 53.4635 43.4049 54.1825C41.8006 55 39.7004 55 35.5 55H24.5C20.2996 55 18.1994 55 16.5951 54.1825C15.1839 53.4635 14.0365 52.3161 13.3175 50.9049C12.5 49.3006 12.5 47.2004 12.5 43V15" stroke="#004878" stroke-width="4" stroke-linecap="round" stroke-linejoin="round"/>
</svg>
