<svg width="119" height="119" viewBox="0 0 119 119" fill="none" xmlns="http://www.w3.org/2000/svg">
<circle cx="59.5" cy="59.5" r="58.5" fill="white" stroke="#004878" stroke-width="2"/>
<circle cx="58.5" cy="59.5" r="44.5" fill="#004878"/>
<path fill-rule="evenodd" clip-rule="evenodd" d="M58.5137 79.5784C57.7323 79.5784 57.0981 78.9442 57.0981 78.1628V72.1968C57.0981 71.4154 57.7323 70.7812 58.5137 70.7812C59.2951 70.7812 59.9292 71.4154 59.9292 72.1968V78.1628C59.9292 78.9442 59.2951 79.5784 58.5137 79.5784Z" fill="#FEFEFE"/>
<path fill-rule="evenodd" clip-rule="evenodd" d="M58.5138 41.8312C55.0674 41.8312 52.2628 44.651 52.2628 48.1181V56.9662C52.2628 60.4295 55.0674 63.2512 58.5138 63.2512C61.9601 63.2512 64.7648 60.4295 64.7648 56.9662V48.1181C64.7648 44.651 61.9601 41.8312 58.5138 41.8312ZM58.5137 66.0821C53.5065 66.0821 49.4316 61.9921 49.4316 56.966V48.118C49.4316 43.09 53.5065 39 58.5137 39C63.521 39 67.5958 43.09 67.5958 48.118V56.966C67.5958 61.9921 63.521 66.0821 58.5137 66.0821Z" fill="#FEFEFE"/>
<mask id="mask0_791_1357" style="mask-type:luminance" maskUnits="userSpaceOnUse" x="42" y="55" width="34" height="19">
<path fill-rule="evenodd" clip-rule="evenodd" d="M42 55.6104H75.0283V73.6122H42V55.6104Z" fill="white"/>
</mask>
<g mask="url(#mask0_791_1357)">
<path fill-rule="evenodd" clip-rule="evenodd" d="M58.5137 73.6122C49.407 73.6122 41.999 66.1722 41.999 57.0259C41.999 56.2445 42.6332 55.6104 43.4146 55.6104C44.1978 55.6104 44.8301 56.2445 44.8301 57.0259C44.8301 64.6094 50.9679 70.7812 58.5137 70.7812C66.0594 70.7812 72.1972 64.6094 72.1972 57.0259C72.1972 56.2445 72.8314 55.6104 73.6127 55.6104C74.396 55.6104 75.0283 56.2445 75.0283 57.0259C75.0283 66.1722 67.6203 73.6122 58.5137 73.6122Z" fill="#FEFEFE"/>
</g>
</svg>
