<svg width="41" height="40" viewBox="0 0 41 40" fill="none" xmlns="http://www.w3.org/2000/svg">
<g clip-path="url(#clip0_782_567)">
<path d="M39.8033 8.30908H1.39689C0.956895 8.30908 0.600098 8.6658 0.600098 9.10588V30.894C0.600098 31.3341 0.956895 31.6908 1.39689 31.6908H39.8033C40.2433 31.6908 40.6001 31.3341 40.6001 30.894V9.10588C40.6001 8.6658 40.2433 8.30908 39.8033 8.30908ZM39.0065 30.0973H2.19369V9.90268H39.0064L39.0065 30.0973Z" fill="#004A7C"/>
<path d="M35.3678 24.4844H24.8973C24.4573 24.4844 24.1005 24.8411 24.1005 25.2812C24.1005 25.7213 24.4572 26.078 24.8973 26.078H35.3678C35.8078 26.078 36.1646 25.7213 36.1646 25.2812C36.1646 24.8411 35.8078 24.4844 35.3678 24.4844Z" fill="#004A7C"/>
<path d="M35.3678 19.3682H24.8973C24.4573 19.3682 24.1005 19.7249 24.1005 20.165C24.1005 20.605 24.4572 20.9618 24.8973 20.9618H35.3678C35.8078 20.9618 36.1646 20.605 36.1646 20.165C36.1646 19.7249 35.8078 19.3682 35.3678 19.3682Z" fill="#004A7C"/>
<path d="M35.4109 14.2517H34.7834C34.3434 14.2517 33.9866 14.6084 33.9866 15.0485C33.9866 15.4886 34.3434 15.8453 34.7834 15.8453H35.4109C35.8509 15.8453 36.2077 15.4886 36.2077 15.0485C36.2077 14.6085 35.8509 14.2517 35.4109 14.2517Z" fill="#004A7C"/>
<path d="M31.7555 14.2517H24.8973C24.4573 14.2517 24.1005 14.6084 24.1005 15.0485C24.1005 15.4886 24.4572 15.8453 24.8973 15.8453H31.7555C32.1955 15.8453 32.5523 15.4886 32.5523 15.0485C32.5523 14.6085 32.1955 14.2517 31.7555 14.2517Z" fill="#004A7C"/>
<path d="M13.1773 20.7854C8.76872 20.7854 5.18201 23.7317 5.18201 27.3529C5.18201 27.793 5.53873 28.1497 5.9788 28.1497H20.3758C20.8158 28.1497 21.1726 27.793 21.1726 27.3529C21.1727 23.7315 17.5861 20.7854 13.1773 20.7854ZM6.85771 26.5562C7.30505 24.4069 9.53138 22.7148 12.3211 22.4238V24.1999C12.3211 24.64 12.6779 24.9967 13.1179 24.9967C13.5579 24.9967 13.9147 24.64 13.9147 24.1999V22.4131C16.7596 22.668 19.0433 24.3765 19.497 26.5562H6.85771Z" fill="#004A7C"/>
<path d="M13.1101 11.7244C10.8254 11.7244 8.96667 13.5831 8.96667 15.8678C8.96667 18.1525 10.8254 20.0112 13.1101 20.0112C15.3948 20.0112 17.2535 18.1525 17.2535 15.8678C17.2535 13.5831 15.3948 11.7244 13.1101 11.7244ZM13.1101 18.4176C11.7041 18.4176 10.5603 17.2737 10.5603 15.8678C10.5603 14.4619 11.7042 13.318 13.1101 13.318C14.516 13.318 15.6599 14.4619 15.6599 15.8678C15.6599 17.2737 14.516 18.4176 13.1101 18.4176Z" fill="#004A7C"/>
</g>
<defs>
<clipPath id="clip0_782_567">
<rect width="40" height="40" fill="white" transform="translate(0.600098)"/>
</clipPath>
</defs>
</svg>
