<svg width="698" height="645" viewBox="0 0 698 645" fill="none" xmlns="http://www.w3.org/2000/svg">
<path d="M686.098 180.811C686.098 217.137 686.098 253.463 686.161 289.852C686.161 292.554 685.784 293.56 682.641 293.56C630.289 293.434 577.937 293.434 525.522 293.56C522.883 293.56 521.94 293.057 522.003 290.166C522.066 217.263 522.066 144.36 522.003 71.5195C522.003 68.6913 522.757 68 525.522 68C577.874 68.0628 630.226 68.0628 682.641 68C685.407 68 686.161 68.6913 686.161 71.5195C686.035 107.908 686.098 144.36 686.098 180.811Z" fill="#5983AF"/>
<path d="M684.715 180.999C684.715 216.885 684.652 252.834 684.778 288.72C684.778 291.548 684.024 292.177 681.259 292.177C629.724 292.114 578.252 292.114 526.717 292.177C523.826 292.177 523.323 291.297 523.323 288.657C523.386 216.823 523.386 144.988 523.323 73.153C523.323 70.262 524.14 69.5078 526.968 69.5078C578.377 69.5707 629.787 69.5707 681.196 69.5078C684.213 69.5078 684.778 70.4505 684.778 73.2158C684.715 109.165 684.715 145.051 684.715 180.999Z" fill="white"/>
<path d="M671.517 180.685C671.517 211.794 671.454 242.841 671.58 273.95C671.58 276.841 670.826 277.658 667.935 277.658C628.467 277.533 588.998 277.595 549.53 277.658C546.702 277.658 545.822 276.967 545.822 274.013C545.885 211.606 545.885 149.198 545.822 86.8531C545.822 84.025 546.576 83.3965 549.279 83.3965C588.873 83.4593 628.404 83.5222 667.998 83.3965C670.952 83.3965 671.58 84.2763 671.58 87.1045C671.517 118.277 671.517 149.449 671.517 180.685Z" fill="#5D85B1"/>
<path d="M547.268 180.496C547.268 149.827 547.268 119.157 547.205 88.4873C547.205 85.8477 547.582 84.7793 550.661 84.7793C589.313 84.905 627.901 84.905 666.552 84.7793C669.381 84.7793 670.009 85.5335 670.009 88.2359C669.946 149.701 669.946 211.166 670.009 272.631C670.009 275.459 669.192 276.087 666.49 276.087C627.838 276.024 589.25 276.024 550.599 276.087C547.708 276.087 547.205 275.207 547.205 272.568C547.268 241.835 547.268 211.166 547.268 180.496Z" fill="white"/>
<path d="M562.1 157.809C593.084 157.809 624.067 157.809 654.988 157.809C654.988 158.06 654.988 158.249 654.988 158.5C624.005 158.5 593.021 158.5 562.037 158.5C562.1 158.249 562.1 158.06 562.1 157.809Z" fill="#5882AE"/>
<path d="M562.037 121.294C593.021 121.294 624.005 121.294 655.303 121.294C653.292 122.739 565.054 122.991 562.037 121.294Z" fill="#5882AE"/>
<path d="M654.988 139.646C651.846 141.091 564.048 140.902 561.408 139.646C593.083 139.646 624.004 139.646 654.988 139.646Z" fill="#5882AE"/>
<path d="M653.417 247.492C653.417 254.343 648.138 259.622 641.35 259.685C634.311 259.748 628.844 254.406 628.844 247.492C628.844 240.768 634.626 234.986 641.288 235.111C648.075 235.3 653.417 240.768 653.417 247.492Z" fill="#5C85B1"/>
<path d="M562.037 178.485C579.194 178.485 596.289 178.485 613.446 178.485C613.446 178.737 613.446 178.988 613.446 179.24C596.289 179.24 579.131 179.24 562.037 179.24C562.037 178.988 562.037 178.737 562.037 178.485Z" fill="#5882AE"/>
<path d="M641.35 236.745C647.258 236.808 652.16 241.773 652.097 247.555C651.972 253.525 647.132 258.239 641.225 258.239C635.317 258.239 630.352 253.4 630.352 247.555C630.289 241.584 635.191 236.745 641.35 236.745Z" fill="white"/>
<path d="M46 20.5H354C379.129 20.5 399.5 40.871 399.5 66V629.5H0.5V66C0.5 40.871 20.871 20.5 46 20.5Z" fill="white" stroke="#5D85B1"/>
<path d="M52 39.5H346C362.845 39.5 376.5 53.1553 376.5 70V137.5H22.5V69C22.5 52.7076 35.7076 39.5 52 39.5Z" fill="white" stroke="#5D85B1"/>
<path d="M284.881 102H250.135C249.533 102 249.067 102.528 249.143 103.126L253.329 136.126C253.392 136.625 253.818 137 254.321 137H281.16C281.669 137 282.096 136.618 282.153 136.112L285.875 103.112C285.941 102.519 285.478 102 284.881 102Z" stroke="#5D85B1"/>
<path d="M22.5 264.5H376.5V362.5H22.5V264.5Z" fill="white" stroke="#5D85B1"/>
<path d="M22.5 154.5H376.5V254.5H22.5V154.5Z" fill="white" stroke="#5D85B1"/>
<path d="M22.5 376.5H376.5V488.5H22.5V376.5Z" fill="white" stroke="#5D85B1"/>
<path d="M22.5 505.5H376.5V617.5H22.5V505.5Z" fill="white" stroke="#5D85B1"/>
<rect x="95.5" y="61.5" width="95" height="38" rx="2.5" stroke="#5D85B1"/>
<rect x="80.5" y="412.5" width="95" height="38" rx="2.5" stroke="#5D85B1"/>
<rect x="81.5" y="324.5" width="95" height="19" rx="2.5" stroke="#5D85B1"/>
<rect x="169.5" y="579.5" width="95" height="19" rx="2.5" stroke="#5D85B1"/>
<rect x="40.5" y="305.5" width="95" height="19" rx="2.5" stroke="#5D85B1"/>
<rect x="159.5" y="560.5" width="95" height="19" rx="2.5" stroke="#5D85B1"/>
<g clip-path="url(#clip0_881_753)">
<path d="M158 77H163V72H169V77H174V83H169V88H163V83H158V77ZM164 82V87H168V82H173V78H168V73H164V78H159V82H164Z" fill="#5D85B1"/>
</g>
<path d="M149 431H154V426H160V431H165V437H160V442H154V437H149V431ZM155 436V441H159V436H164V432H159V427H155V432H150V436H155Z" fill="#5D85B1"/>
<path d="M243 448.438H251.438V440H261.562V448.438H270V458.562H261.562V467H251.438V458.562H243V448.438ZM253.125 456.875V465.312H259.875V456.875H268.312V450.125H259.875V441.688H253.125V450.125H244.688V456.875H253.125Z" fill="#5D85B1"/>
<path d="M138 119H143V114H149V119H154V125H149V130H143V125H138V119ZM144 124V129H148V124H153V120H148V115H144V120H139V124H144Z" fill="#5D85B1"/>
<path d="M151 470H156V465H162V470H167V476H162V481H156V476H151V470ZM157 475V480H161V475H166V471H161V466H157V471H152V475H157Z" fill="#5D85B1"/>
<rect x="66.5" y="99.5" width="97" height="38" rx="2.5" stroke="#5D85B1"/>
<rect x="79.5" y="450.5" width="97" height="38" rx="2.5" stroke="#5D85B1"/>
<rect x="52.5" y="343.5" width="97" height="19" rx="2.5" stroke="#5D85B1"/>
<rect x="163.5" y="598.5" width="97" height="19" rx="2.5" stroke="#5D85B1"/>
<path d="M254.528 74.8794C254.205 74.7095 253.861 74.582 253.504 74.5C253.861 74.418 254.205 74.2905 254.528 74.1206C254.861 73.9346 255.152 73.6869 255.386 73.3917C255.62 73.0965 255.792 72.7596 255.892 72.4002C255.991 72.0407 256.016 71.6659 255.966 71.2969C255.916 70.928 255.791 70.5723 255.599 70.25C255.407 69.9277 255.151 69.6453 254.846 69.4187C254.541 69.1922 254.193 69.026 253.822 68.9297C253.451 68.8334 253.064 68.8088 252.683 68.8573C252.301 68.9059 251.934 69.0266 251.601 69.2127C251.288 69.3986 251.002 69.6235 250.75 69.8817C250.855 69.5411 250.913 69.1886 250.922 68.8333C250.922 68.0819 250.614 67.3612 250.065 66.8299C249.516 66.2985 248.772 66 247.996 66C247.219 66 246.475 66.2985 245.926 66.8299C245.377 67.3612 245.069 68.0819 245.069 68.8333C245.079 69.1886 245.136 69.5411 245.241 69.8817C244.989 69.6235 244.703 69.3986 244.39 69.2127C243.718 68.837 242.919 68.7352 242.169 68.9297C241.419 69.1242 240.78 69.5992 240.392 70.25C240.004 70.9008 239.899 71.6743 240.1 72.4002C240.301 73.126 240.791 73.7449 241.464 74.1206C241.786 74.2905 242.13 74.418 242.487 74.5C242.13 74.582 241.786 74.7095 241.464 74.8794C240.791 75.2551 240.301 75.874 240.1 76.5998C239.899 77.3257 240.004 78.0992 240.392 78.75C240.78 79.4008 241.419 79.8758 242.169 80.0703C242.919 80.2648 243.718 80.163 244.39 79.7873C244.703 79.6014 244.989 79.3765 245.241 79.1183C245.136 79.4589 245.079 79.8114 245.069 80.1667C245.069 80.9181 245.377 81.6388 245.926 82.1701C246.475 82.7015 247.219 83 247.996 83C248.772 83 249.516 82.7015 250.065 82.1701C250.614 81.6388 250.922 80.9181 250.922 80.1667C250.913 79.8114 250.855 79.4589 250.75 79.1183C251.002 79.3765 251.288 79.6014 251.601 79.7873C252.046 80.037 252.55 80.1684 253.064 80.1682C253.322 80.1678 253.578 80.1347 253.826 80.0699C254.386 79.9255 254.89 79.6233 255.272 79.2016C255.655 78.7799 255.899 78.2578 255.975 77.7013C256.051 77.1449 255.954 76.5792 255.697 76.0761C255.44 75.573 255.034 75.1551 254.532 74.8754L254.528 74.8794ZM251.926 69.7581C252.449 69.4659 253.07 69.3867 253.654 69.538C254.237 69.6893 254.734 70.0586 255.036 70.5648C255.338 71.071 255.419 71.6725 255.263 72.2371C255.107 72.8017 254.725 73.283 254.203 73.5752C253.638 73.89 252.591 74.0994 251.159 74.1844L250.902 74.171C250.855 73.7879 250.729 73.418 250.529 73.084C250.33 72.75 250.062 72.4589 249.743 72.2286C249.783 72.1499 249.824 72.0791 249.86 72.0051C250.652 70.8474 251.361 70.0745 251.926 69.7581ZM247.996 76.7037C247.545 76.7037 247.105 76.5745 246.731 76.3323C246.357 76.0902 246.065 75.746 245.893 75.3433C245.72 74.9406 245.675 74.4976 245.763 74.0701C245.851 73.6426 246.068 73.2499 246.386 72.9417C246.704 72.6336 247.11 72.4237 247.552 72.3386C247.993 72.2536 248.451 72.2972 248.867 72.464C249.283 72.6308 249.638 72.9133 249.888 73.2757C250.138 73.6381 250.272 74.0641 250.272 74.5C250.272 75.0845 250.032 75.645 249.605 76.0583C249.178 76.4715 248.599 76.7037 247.996 76.7037ZM247.996 66.6296C248.599 66.6296 249.178 66.8618 249.605 67.2751C250.032 67.6884 250.272 68.2489 250.272 68.8333C250.272 69.463 249.935 70.4468 249.296 71.6903C249.249 71.7588 249.203 71.828 249.156 71.8988C248.79 71.7457 248.395 71.6667 247.996 71.6667C247.598 71.6667 247.203 71.7457 246.837 71.8988C246.79 71.828 246.744 71.7588 246.697 71.6903C246.056 70.4468 245.719 69.463 245.719 68.8333C245.719 68.2489 245.959 67.6884 246.386 67.2751C246.813 66.8618 247.392 66.6296 247.996 66.6296ZM241.789 73.5752C241.266 73.283 240.884 72.8017 240.728 72.2371C240.572 71.6725 240.654 71.071 240.955 70.5648C241.257 70.0586 241.754 69.6893 242.338 69.538C242.921 69.3867 243.542 69.4659 244.065 69.7581C244.63 70.0729 245.34 70.8474 246.132 72.0051C246.17 72.0791 246.213 72.1531 246.249 72.2286C245.929 72.4589 245.661 72.75 245.462 73.084C245.263 73.418 245.136 73.7879 245.089 74.171L244.832 74.1844C243.4 74.0994 242.354 73.8908 241.789 73.5752ZM244.065 79.2419C243.806 79.3866 243.52 79.4805 243.224 79.5183C242.928 79.556 242.626 79.5369 242.338 79.462C242.049 79.3871 241.778 79.2579 241.541 79.0817C241.304 78.9055 241.105 78.6858 240.955 78.4352C240.806 78.1845 240.709 77.9079 240.67 77.6209C240.631 77.334 240.651 77.0424 240.728 76.7629C240.805 76.4834 240.939 76.2213 241.121 75.9917C241.303 75.7621 241.53 75.5695 241.789 75.4248C242.358 75.11 243.4 74.9006 244.832 74.8156L245.089 74.829C245.136 75.2121 245.263 75.582 245.462 75.916C245.661 76.25 245.929 76.5411 246.249 76.7714C246.209 76.8501 246.167 76.9209 246.132 76.9949C245.34 78.1526 244.63 78.9255 244.065 79.2419ZM247.996 82.3704C247.392 82.3704 246.813 82.1382 246.386 81.7249C245.959 81.3116 245.719 80.7511 245.719 80.1667C245.719 79.537 246.056 78.5532 246.695 77.3097C246.742 77.2412 246.788 77.172 246.836 77.1012C247.202 77.2543 247.596 77.3333 247.995 77.3333C248.394 77.3333 248.788 77.2543 249.154 77.1012C249.201 77.172 249.248 77.2412 249.295 77.3097C249.935 78.5532 250.27 79.5347 250.27 80.1667C250.27 80.7509 250.031 81.3111 249.604 81.7244C249.178 82.1376 248.599 82.37 247.996 82.3704ZM255.036 78.4352C254.886 78.6858 254.687 78.9055 254.45 79.0817C254.213 79.2579 253.942 79.3871 253.654 79.4621C253.365 79.537 253.064 79.5561 252.767 79.5183C252.471 79.4805 252.185 79.3866 251.926 79.2419C251.361 78.9271 250.652 78.1526 249.86 76.9949C249.822 76.9209 249.778 76.8469 249.743 76.7714C250.062 76.5411 250.33 76.25 250.529 75.916C250.729 75.582 250.855 75.2121 250.902 74.829L251.159 74.8156C252.591 74.9006 253.638 75.1092 254.203 75.4248C254.461 75.5695 254.688 75.7621 254.87 75.9917C255.052 76.2213 255.186 76.4833 255.263 76.7629C255.341 77.0424 255.36 77.334 255.321 77.6209C255.282 77.9079 255.185 78.1846 255.036 78.4352Z" fill="#5D85B1"/>
<path d="M262.72 77.3369C262.988 77.0894 263.287 76.8771 263.611 76.7055C263.245 76.7187 262.879 76.6846 262.524 76.604C262.154 76.5105 261.808 76.3467 261.506 76.1221C261.203 75.8976 260.95 75.6165 260.761 75.2951C260.572 74.9737 260.451 74.6182 260.404 74.2488C260.357 73.8795 260.385 73.5036 260.487 73.1426C260.589 72.7815 260.763 72.4425 260.999 72.1448C261.235 71.847 261.528 71.5964 261.862 71.4073C262.196 71.2182 262.563 71.0942 262.944 71.0425C263.325 70.9907 263.711 71.0123 264.081 71.1058C264.431 71.2045 264.765 71.3476 265.076 71.5317C264.886 71.2299 264.739 70.9044 264.638 70.5637C264.444 69.8378 264.555 69.0619 264.947 68.4066C265.34 67.7513 265.982 67.2703 266.732 67.0694C267.481 66.8685 268.278 66.9642 268.945 67.3354C269.613 67.7066 270.097 68.3229 270.292 69.0487C270.375 69.3944 270.41 69.7499 270.397 70.106C270.574 69.7914 270.792 69.5 271.046 69.2395C271.598 68.7026 272.343 68.3975 273.118 68.3913C273.892 68.3852 274.633 68.6784 275.176 69.2067C275.719 69.7349 276.021 70.4547 276.015 71.2079C276.009 71.9611 275.695 72.6858 275.143 73.2227C274.876 73.4702 274.576 73.6825 274.252 73.8541C274.619 73.8408 274.984 73.875 275.339 73.9556C276.086 74.1445 276.72 74.6153 277.102 75.2645C277.484 75.9136 277.582 76.6879 277.376 77.417C277.17 78.1461 276.675 78.7703 276.001 79.1523C275.327 79.5343 274.529 79.6427 273.783 79.4538C273.432 79.3551 273.098 79.2119 272.787 79.0279C272.977 79.3297 273.124 79.6552 273.225 79.9959C273.42 80.7217 273.308 81.4977 272.916 82.153C272.523 82.8083 271.881 83.2893 271.132 83.4902C270.382 83.6911 269.586 83.5954 268.918 83.2242C268.25 82.853 267.766 82.2367 267.571 81.5108C267.489 81.1652 267.453 80.8097 267.466 80.4536C267.29 80.7682 267.071 81.0596 266.817 81.3201C266.453 81.6763 265.999 81.9339 265.503 82.0668C265.254 82.1329 264.998 82.1673 264.741 82.1689C264.163 82.1745 263.598 82.0128 263.12 81.7045C262.641 81.3962 262.27 80.9552 262.053 80.4372C261.836 79.9193 261.783 79.3479 261.901 78.7954C262.019 78.243 262.302 77.7343 262.715 77.3341L262.72 77.3369ZM263.908 71.7168C263.327 71.5699 262.706 71.6542 262.182 71.9513C261.658 72.2483 261.273 72.7338 261.113 73.3008C260.952 73.8679 261.029 74.4701 261.326 74.975C261.623 75.4799 262.116 75.8461 262.697 75.993C263.324 76.1509 264.389 76.0823 265.794 75.7936L266.039 75.7142C265.985 75.3321 266.012 74.942 266.118 74.5678C266.224 74.1936 266.407 73.8432 266.656 73.538C266.597 73.4723 266.539 73.4146 266.485 73.3524C265.421 72.439 264.535 71.8762 263.908 71.7168ZM269.502 77.4084C269.937 77.2919 270.328 77.0531 270.627 76.7224C270.926 76.3916 271.119 75.9836 271.181 75.5501C271.243 75.1165 271.172 74.6769 270.977 74.2867C270.781 73.8965 270.47 73.5733 270.083 73.3581C269.696 73.1428 269.25 73.045 268.801 73.0771C268.353 73.1093 267.922 73.2699 267.563 73.5387C267.205 73.8074 266.934 74.1723 266.787 74.5871C266.639 75.0018 266.62 75.4479 266.733 75.8689C266.884 76.4335 267.261 76.9128 267.78 77.2015C268.299 77.4902 268.919 77.5647 269.502 77.4084ZM266.895 67.6776C266.311 67.8339 265.812 68.208 265.507 68.7176C265.202 69.2273 265.115 69.8308 265.266 70.3954C265.429 71.0035 266.009 71.8667 266.948 72.9025C267.011 72.9564 267.074 73.0113 267.138 73.0675C267.452 72.8248 267.812 72.6464 268.197 72.5432C268.583 72.44 268.984 72.4142 269.377 72.4674C269.405 72.3868 269.431 72.3079 269.459 72.2296C269.756 70.8626 269.827 69.8252 269.664 69.2171C269.512 68.6525 269.136 68.1732 268.616 67.8845C268.097 67.5958 267.478 67.5214 266.895 67.6776ZM274.688 72.7801C275.117 72.3625 275.361 71.7988 275.366 71.213C275.371 70.6272 275.136 70.0674 274.713 69.6566C274.291 69.2458 273.715 69.0177 273.113 69.0225C272.51 69.0273 271.93 69.2646 271.501 69.6821C271.037 70.1325 270.552 71.0642 270.086 72.3874C270.069 72.4688 270.046 72.5514 270.031 72.6336C270.4 72.7734 270.733 72.9853 271.012 73.2563C271.291 73.5273 271.51 73.8518 271.654 74.2098L271.905 74.1562C273.267 73.7034 274.224 73.2312 274.688 72.7801ZM273.956 78.8428C274.243 78.9156 274.543 78.9323 274.84 78.8921C275.136 78.8518 275.422 78.7554 275.681 78.6083C275.941 78.4612 276.169 78.2664 276.352 78.0348C276.536 77.8032 276.671 77.5395 276.75 77.2588C276.83 76.978 276.852 76.6856 276.815 76.3984C276.779 76.1111 276.684 75.8346 276.537 75.5846C276.39 75.3346 276.193 75.116 275.958 74.9414C275.723 74.7667 275.454 74.6393 275.166 74.5666C274.535 74.4098 273.474 74.4773 272.069 74.7659L271.824 74.8454C271.878 75.2274 271.852 75.6176 271.745 75.9918C271.639 76.366 271.456 76.7164 271.207 77.0216C271.266 77.0873 271.324 77.145 271.378 77.2072C272.442 78.1206 273.328 78.6834 273.956 78.8428ZM270.969 82.882C271.552 82.7257 272.051 82.3516 272.356 81.8419C272.662 81.3323 272.748 80.7288 272.597 80.1642C272.434 79.5561 271.854 78.6929 270.915 77.6571C270.852 77.6032 270.789 77.5483 270.725 77.4921C270.411 77.7347 270.051 77.9132 269.666 78.0164C269.281 78.1196 268.879 78.1454 268.486 78.0922C268.459 78.1728 268.432 78.2517 268.404 78.33C268.108 79.6967 268.038 80.7316 268.201 81.3421C268.352 81.9064 268.729 82.3856 269.248 82.6743C269.767 82.9631 270.386 83.0378 270.969 82.882ZM263.15 80.903C263.359 81.1065 263.608 81.2672 263.883 81.376C264.157 81.4848 264.452 81.5395 264.751 81.5372C265.049 81.5348 265.345 81.4753 265.621 81.3621C265.898 81.2489 266.15 81.0842 266.362 80.8774C266.826 80.4271 267.312 79.4954 267.777 78.1722C267.794 78.0908 267.817 78.0082 267.832 77.926C267.464 77.7862 267.13 77.5743 266.851 77.3033C266.572 77.0323 266.354 76.7078 266.209 76.3498L265.958 76.4033C264.596 76.8562 263.64 77.3284 263.176 77.7795C262.963 77.9863 262.794 78.2311 262.677 78.5C262.561 78.7689 262.5 79.0565 262.497 79.3466C262.495 79.6366 262.551 79.9234 262.663 80.1904C262.775 80.4575 262.941 80.6996 263.15 80.903Z" fill="#5D85B1"/>
<path d="M279.72 77.3369C279.988 77.0894 280.287 76.8771 280.611 76.7055C280.245 76.7187 279.879 76.6846 279.524 76.604C279.154 76.5105 278.808 76.3467 278.506 76.1221C278.203 75.8976 277.95 75.6165 277.761 75.2951C277.572 74.9737 277.451 74.6182 277.404 74.2488C277.357 73.8795 277.385 73.5036 277.487 73.1426C277.589 72.7815 277.763 72.4425 277.999 72.1448C278.235 71.847 278.528 71.5964 278.862 71.4073C279.196 71.2182 279.563 71.0942 279.944 71.0425C280.325 70.9907 280.711 71.0123 281.081 71.1058C281.431 71.2045 281.765 71.3476 282.076 71.5317C281.886 71.2299 281.739 70.9044 281.638 70.5637C281.444 69.8378 281.555 69.0619 281.947 68.4066C282.34 67.7513 282.982 67.2703 283.732 67.0694C284.481 66.8685 285.278 66.9642 285.945 67.3354C286.613 67.7066 287.097 68.3229 287.292 69.0487C287.375 69.3944 287.41 69.7499 287.397 70.106C287.574 69.7914 287.792 69.5 288.046 69.2395C288.598 68.7026 289.343 68.3975 290.118 68.3913C290.892 68.3852 291.633 68.6784 292.176 69.2067C292.719 69.7349 293.021 70.4547 293.015 71.2079C293.009 71.9611 292.695 72.6858 292.143 73.2227C291.876 73.4702 291.576 73.6825 291.252 73.8541C291.619 73.8408 291.984 73.875 292.339 73.9556C293.086 74.1445 293.72 74.6153 294.102 75.2645C294.484 75.9136 294.582 76.6879 294.376 77.417C294.17 78.1461 293.675 78.7703 293.001 79.1523C292.327 79.5343 291.529 79.6427 290.783 79.4538C290.432 79.3551 290.098 79.2119 289.787 79.0279C289.977 79.3297 290.124 79.6552 290.225 79.9959C290.42 80.7217 290.308 81.4977 289.916 82.153C289.523 82.8083 288.881 83.2893 288.132 83.4902C287.382 83.6911 286.586 83.5954 285.918 83.2242C285.25 82.853 284.766 82.2367 284.571 81.5108C284.489 81.1652 284.453 80.8097 284.466 80.4536C284.29 80.7682 284.071 81.0596 283.817 81.3201C283.453 81.6763 282.999 81.9339 282.503 82.0668C282.254 82.1329 281.998 82.1673 281.741 82.1689C281.163 82.1745 280.598 82.0128 280.12 81.7045C279.641 81.3962 279.27 80.9552 279.053 80.4372C278.836 79.9193 278.783 79.3479 278.901 78.7954C279.019 78.243 279.302 77.7343 279.715 77.3341L279.72 77.3369ZM280.908 71.7168C280.327 71.5699 279.706 71.6542 279.182 71.9513C278.658 72.2483 278.273 72.7338 278.113 73.3008C277.952 73.8679 278.029 74.4701 278.326 74.975C278.623 75.4799 279.116 75.8461 279.697 75.993C280.324 76.1509 281.389 76.0823 282.794 75.7936L283.039 75.7142C282.985 75.3321 283.012 74.942 283.118 74.5678C283.224 74.1936 283.407 73.8432 283.656 73.538C283.597 73.4723 283.539 73.4146 283.485 73.3524C282.421 72.439 281.535 71.8762 280.908 71.7168ZM286.502 77.4084C286.937 77.2919 287.328 77.0531 287.627 76.7224C287.926 76.3916 288.119 75.9836 288.181 75.5501C288.243 75.1165 288.172 74.6769 287.977 74.2867C287.781 73.8965 287.47 73.5733 287.083 73.3581C286.696 73.1428 286.25 73.045 285.801 73.0771C285.353 73.1093 284.922 73.2699 284.563 73.5387C284.205 73.8074 283.934 74.1723 283.787 74.5871C283.639 75.0018 283.62 75.4479 283.733 75.8689C283.884 76.4335 284.261 76.9128 284.78 77.2015C285.299 77.4902 285.919 77.5647 286.502 77.4084ZM283.895 67.6776C283.311 67.8339 282.812 68.208 282.507 68.7176C282.202 69.2273 282.115 69.8308 282.266 70.3954C282.429 71.0035 283.009 71.8667 283.948 72.9025C284.011 72.9564 284.074 73.0113 284.138 73.0675C284.452 72.8248 284.812 72.6464 285.197 72.5432C285.583 72.44 285.984 72.4142 286.377 72.4674C286.405 72.3868 286.431 72.3079 286.459 72.2296C286.756 70.8626 286.827 69.8252 286.664 69.2171C286.512 68.6525 286.136 68.1732 285.616 67.8845C285.097 67.5958 284.478 67.5214 283.895 67.6776ZM291.688 72.7801C292.117 72.3625 292.361 71.7988 292.366 71.213C292.371 70.6272 292.136 70.0674 291.713 69.6566C291.291 69.2458 290.715 69.0177 290.113 69.0225C289.51 69.0273 288.93 69.2646 288.501 69.6821C288.037 70.1325 287.552 71.0642 287.086 72.3874C287.069 72.4688 287.046 72.5514 287.031 72.6336C287.4 72.7734 287.733 72.9853 288.012 73.2563C288.291 73.5273 288.51 73.8518 288.654 74.2098L288.905 74.1562C290.267 73.7034 291.224 73.2312 291.688 72.7801ZM290.956 78.8428C291.243 78.9156 291.543 78.9323 291.84 78.8921C292.136 78.8518 292.422 78.7554 292.681 78.6083C292.941 78.4612 293.169 78.2664 293.352 78.0348C293.536 77.8032 293.671 77.5395 293.75 77.2588C293.83 76.978 293.852 76.6856 293.815 76.3984C293.779 76.1111 293.684 75.8346 293.537 75.5846C293.39 75.3346 293.193 75.116 292.958 74.9414C292.723 74.7667 292.454 74.6393 292.166 74.5666C291.535 74.4098 290.474 74.4773 289.069 74.7659L288.824 74.8454C288.878 75.2274 288.852 75.6176 288.745 75.9918C288.639 76.366 288.456 76.7164 288.207 77.0216C288.266 77.0873 288.324 77.145 288.378 77.2072C289.442 78.1206 290.328 78.6834 290.956 78.8428ZM287.969 82.882C288.552 82.7257 289.051 82.3516 289.356 81.8419C289.662 81.3323 289.748 80.7288 289.597 80.1642C289.434 79.5561 288.854 78.6929 287.915 77.6571C287.852 77.6032 287.789 77.5483 287.725 77.4921C287.411 77.7347 287.051 77.9132 286.666 78.0164C286.281 78.1196 285.879 78.1454 285.486 78.0922C285.459 78.1728 285.432 78.2517 285.404 78.33C285.108 79.6967 285.038 80.7316 285.201 81.3421C285.352 81.9064 285.729 82.3856 286.248 82.6743C286.767 82.9631 287.386 83.0378 287.969 82.882ZM280.15 80.903C280.359 81.1065 280.608 81.2672 280.883 81.376C281.157 81.4848 281.452 81.5395 281.751 81.5372C282.049 81.5348 282.345 81.4753 282.621 81.3621C282.898 81.2489 283.15 81.0842 283.362 80.8774C283.826 80.4271 284.312 79.4954 284.777 78.1722C284.794 78.0908 284.817 78.0082 284.832 77.926C284.464 77.7862 284.13 77.5743 283.851 77.3033C283.572 77.0323 283.354 76.7078 283.209 76.3498L282.958 76.4033C281.596 76.8562 280.64 77.3284 280.176 77.7795C279.963 77.9863 279.794 78.2311 279.677 78.5C279.561 78.7689 279.5 79.0565 279.497 79.3466C279.495 79.6366 279.551 79.9234 279.663 80.1904C279.775 80.4575 279.941 80.6996 280.15 80.903Z" fill="#5D85B1"/>
<path d="M250 79C250 79 255.857 84.4497 257.348 89C258.815 93.4733 257 102 257 102" stroke="#5D85B1" stroke-width="0.8"/>
<path d="M267.92 79C267.92 79 267 89.2115 267 94C267 100.5 269.5 102 269.5 102" stroke="#5D85B1" stroke-width="0.8"/>
<path d="M284.92 79C284.92 79 283.992 89.4497 282.5 94C281.034 98.4733 277.92 102 277.92 102" stroke="#5D85B1" stroke-width="0.8"/>
<rect x="44.5" y="546.5" width="98" height="71" rx="1.5" fill="white" stroke="#5D85B1"/>
<rect x="35.5" y="536.5" width="117" height="10" rx="1.5" fill="white" stroke="#5D85B1"/>
<rect x="78.5" y="546.5" width="30" height="17" stroke="#5D85B1"/>
<path d="M70.9332 428H36.0754C35.4946 428 35.0359 428.493 35.0781 429.073L39.3725 488.073C39.4105 488.595 39.8457 489 40.3699 489H67.1159C67.6432 489 68.0798 488.591 68.1139 488.065L71.9311 429.065C71.9684 428.488 71.5109 428 70.9332 428Z" stroke="#5D85B1"/>
<path d="M125.779 204V227.077L139.743 244.654C140.423 245.505 140.847 246.528 140.966 247.607C141.084 248.685 140.893 249.775 140.414 250.751C139.935 251.727 139.187 252.549 138.256 253.124C137.326 253.699 136.251 254.002 135.153 254H100.847C99.7495 254.002 98.674 253.699 97.7435 253.124C96.8131 252.549 96.0653 251.727 95.5861 250.751C95.1069 249.775 94.9156 248.685 95.0342 247.607C95.1528 246.528 95.5766 245.505 96.2568 244.654L110.221 227.077V204M104.386 204H131.614" stroke="#5D85B1" stroke-linecap="round" stroke-linejoin="round"/>
<path d="M70.7793 204V227.077L84.7432 244.654C85.4234 245.505 85.8472 246.528 85.9658 247.607C86.0844 248.685 85.8931 249.775 85.4139 250.751C84.9347 251.727 84.1869 252.549 83.2565 253.124C82.326 253.699 81.2505 254.002 80.1534 254H45.8466C44.7495 254.002 43.674 253.699 42.7435 253.124C41.8131 252.549 41.0653 251.727 40.5861 250.751C40.1069 249.775 39.9156 248.685 40.0342 247.607C40.1528 246.528 40.5766 245.505 41.2568 244.654L55.2207 227.077V204M49.3862 204H76.6138" stroke="#5D85B1" stroke-linecap="round" stroke-linejoin="round"/>
<path d="M42.5 242.5H83" stroke="#5D85B1"/>
<rect x="207.5" y="419.5" width="99" height="69" rx="6.5" stroke="#5D85B1"/>
<path d="M232 419.182V407C232 406.448 232.448 406 233 406H280C280.552 406 281 406.448 281 407V419.5" stroke="#5D85B1"/>
<path d="M234 419.717V409C234 408.448 234.448 408 235 408H278C278.552 408 279 408.448 279 409V420" stroke="#5D85B1"/>
<path d="M345.068 33.8812C345.165 31.7297 346.287 29.6203 346.309 27.4667C346.352 23.1182 346.365 18.7431 346.43 14.4132C346.511 5.88002 353.071 0 362.71 0C422.728 0 482.665 0 542.682 0C552.159 0 558.558 5.80831 558.639 14.2698C558.714 22.9199 558.789 31.5083 558.799 40.1496C558.801 41.4701 559.365 42.7182 559.53 44.0284V44.0284C559.854 48.8328 559.692 53.709 559.611 58.5851C559.611 59.2304 559.611 59.9475 559.611 60.5929C559.692 82.392 559.368 104.191 559.773 126.062C559.935 134.81 552.726 141.981 541.872 142.268C532.315 142.483 522.758 142.339 513.2 142.339C502.023 142.339 490.845 142.483 479.668 142.268C479.182 142.268 478.615 142.268 478.129 142.268C472.621 142.339 467.032 142.411 461.525 142.268C439.656 142.339 417.868 142.339 395.999 142.268C391.868 142.268 388.791 143.343 386.037 145.925C376.236 155.103 366.679 164.569 356.554 173.461C355.177 174.608 353.962 175.899 352.261 176.759C349.265 178.265 346.673 177.333 345.62 174.464C345.215 173.317 345.134 172.098 345.134 170.951C345.134 137.32 345.053 103.617 345.134 69.9866C344.891 58.2265 345.053 46.4665 345.053 34.7065C345.053 34.4238 345.056 34.1487 345.068 33.8812Z" fill="#FF2323"/>
<path d="M393.004 66.9014C393.004 66.9014 388.48 69.0419 387.251 71.6958C386.044 74.3009 388.767 76.609 387.251 79.0472C385.658 81.6091 382.063 79.8565 380.219 82.2435C379.944 82.5997 379.58 83.2024 379.58 83.2024" stroke="#F5F5F5" stroke-width="2" stroke-linecap="round"/>
<path d="M405.79 57.3124C408.487 60.4841 405.15 64.6641 402.309 67.3902C399.077 70.0841 394.288 69.3591 392.685 66.5818C391.081 63.8045 392.537 59.8823 395.881 57.9515C399.225 56.0208 403.277 54.3587 405.79 57.3124Z" fill="white"/>
<path d="M394.922 61.5428C394.922 61.5428 396.638 59.5894 398.118 58.9857C399.74 58.3241 402.273 57.9385 402.273 57.9385" stroke="url(#paint0_linear_881_753)" stroke-linecap="round"/>
<path d="M414.919 40.3489C414.919 40.3489 409.931 39.9405 407.54 41.6243C405.192 43.2773 406.396 46.6371 403.864 47.9909C401.204 49.4132 398.967 46.0979 396.176 47.243C395.76 47.4139 395.143 47.7538 395.143 47.7538" stroke="#F5F5F5" stroke-width="2" stroke-linecap="round"/>
<path d="M430.786 38.4378C431.536 42.5334 426.556 44.4849 422.733 45.4252C418.587 46.1423 414.802 43.12 414.802 39.913C414.802 36.706 418.024 34.0371 421.885 34.0371C425.747 34.0371 430.087 34.6238 430.786 38.4378Z" fill="white"/>
<path d="M419.259 36.6673C419.259 36.6673 421.722 35.8338 423.306 36.051C425.042 36.2891 427.428 37.2216 427.428 37.2216" stroke="url(#paint1_linear_881_753)" stroke-linecap="round"/>
<path d="M430.119 73.1932C430.119 73.1932 425.194 74.0898 423.32 76.3352C421.481 78.5394 423.513 81.4733 421.418 83.4362C419.216 85.4986 416.197 82.8752 413.798 84.7036C413.44 84.9764 412.933 85.4643 412.933 85.4643" stroke="#F5F5F5" stroke-width="2" stroke-linecap="round"/>
<path d="M444.95 67.2398C446.734 71.0016 442.429 74.1755 438.98 76.0734C435.161 77.8391 430.722 75.8993 429.892 72.8017C429.062 69.704 431.484 66.2921 435.213 65.2927C438.943 64.2933 443.288 63.7366 444.95 67.2398Z" fill="white"/>
<path d="M433.358 68.5127C433.358 68.5127 435.521 67.0701 437.107 66.8701C438.845 66.6508 441.392 66.9339 441.392 66.9339" stroke="url(#paint2_linear_881_753)" stroke-linecap="round"/>
<path d="M411.58 100.68C411.58 100.68 406.656 101.576 404.782 103.822C402.943 106.026 404.974 108.96 402.879 110.922C400.678 112.985 397.659 110.361 395.26 112.19C394.902 112.463 394.394 112.951 394.394 112.951" stroke="#F5F5F5" stroke-width="2" stroke-linecap="round"/>
<path d="M426.412 94.7271C428.196 98.4889 423.891 101.663 420.441 103.561C416.623 105.326 412.184 103.387 411.354 100.289C410.524 97.1913 412.946 93.7794 416.675 92.78C420.405 91.7806 424.75 91.2239 426.412 94.7271Z" fill="white"/>
<path d="M414.82 96C414.82 96 416.983 94.5574 418.569 94.3574C420.307 94.1381 422.853 94.4212 422.853 94.4212" stroke="url(#paint3_linear_881_753)" stroke-linecap="round"/>
<path d="M442.802 100.606C442.802 100.606 439.536 104.398 439.49 107.323C439.445 110.193 442.869 111.198 442.474 114.041C442.058 117.029 438.061 116.887 437.345 119.817C437.238 120.254 437.15 120.952 437.15 120.952" stroke="#F5F5F5" stroke-width="2" stroke-linecap="round"/>
<path d="M450.594 86.6527C454.347 88.4564 452.994 93.631 451.504 97.2757C449.644 101.049 444.973 102.331 442.38 100.443C439.787 98.5561 439.526 94.3806 441.798 91.2587C444.071 88.1368 447.099 84.973 450.594 86.6527Z" fill="white"/>
<path d="M442.379 94.9298C442.379 94.9298 443.155 92.448 444.262 91.2955C445.476 90.0323 447.635 88.6518 447.635 88.6518" stroke="url(#paint4_linear_881_753)" stroke-linecap="round"/>
<path d="M472.2 93.8171C472.2 93.8171 470.515 98.5298 471.522 101.275C472.511 103.971 476.068 103.678 476.72 106.474C477.406 109.411 473.624 110.714 474.008 113.706C474.066 114.152 474.234 114.836 474.234 114.836" stroke="#F5F5F5" stroke-width="2" stroke-linecap="round"/>
<path d="M474.461 77.9957C478.611 78.331 479.207 83.6462 479.126 87.5828C478.745 91.7729 474.846 94.6467 471.749 93.8167C468.651 92.9867 466.907 89.1839 467.906 85.454C468.906 81.7242 470.596 77.6835 474.461 77.9957Z" fill="white"/>
<path d="M469.767 88.6717C469.767 88.6717 469.599 86.077 470.219 84.6035C470.898 82.9885 472.417 80.9248 472.417 80.9248" stroke="url(#paint5_linear_881_753)" stroke-linecap="round"/>
<circle cx="466.95" cy="43.6328" r="26.3076" fill="white" stroke="#BCD0E9" stroke-width="3"/>
<circle cx="467.27" cy="43.9529" r="11.5066" fill="#799ED2"/>
<path d="M226.511 619.785C225.003 626.447 223.558 633.172 221.924 639.834C221.609 641.216 222.112 643.919 219.912 643.479C217.713 643.039 219.221 640.839 219.535 639.394C220.918 632.857 222.301 626.321 223.683 619.785C223.495 619.534 223.432 619.22 223.369 618.905C223.369 618.277 223.558 617.648 223.558 617.02C225.003 610.044 226.386 603.068 228.145 596.092C228.397 595.275 228.585 594.458 228.585 593.641C232.168 577.237 235.499 560.834 239.395 544.557C239.898 543.488 239.835 542.231 240.024 541.1C241.972 532.867 243.669 524.571 245.554 516.275C245.743 515.458 246.12 514.704 246.12 513.824C247.565 507.665 248.822 501.443 250.456 495.347C250.519 494.844 250.645 494.404 250.771 493.902C251.462 490.571 251.399 490.508 247.754 490.508C235.059 490.508 223.746 486.486 213.502 479.07C212.748 478.441 211.931 477.938 211.177 477.31C199.11 467.317 192.008 454.433 189.494 438.973C188.363 431.871 186.729 424.832 185.661 417.73C185.535 417.039 185.283 416.41 185.158 415.782C182.832 403.464 180.633 391.083 178.245 378.702C178.119 377.508 178.182 376.314 177.742 375.182C176.736 370.72 176.045 366.195 175.102 361.67C175.039 361.167 174.976 360.665 174.976 360.162C172.902 349.038 170.137 338.04 169.132 326.79C168.252 316.986 171.834 308.313 178.37 300.897C185.409 292.852 194.522 289.207 204.955 288.39C207.657 288.201 210.36 287.573 213.062 287.636C215.262 287.636 231.513 290.207 233.65 290.647C231.701 289.139 293.884 252.78 292.313 250.518C289.108 246.621 296.12 250.518 288.856 247.692L286.971 246.562L287.661 243.17L288.856 241.309L289.599 240.344C289.599 240.344 287.661 241.766 281.523 238.084C278.697 236.388 267.393 228.475 267.393 228.475C267.896 228.161 271.915 221.693 271.915 221.693C278.361 211.519 274.653 213.853 278.361 207.191C280.372 203.609 282.446 200.089 285.4 197.261C285.965 196.758 286.468 196.193 286.971 195.69C291.433 191.919 296.398 189.216 302.18 188.211C302.683 188.211 303.123 188.399 303.5 188.651C312.927 188.525 321.663 191.165 329.959 195.376C331.027 195.941 332.158 196.067 333.289 196.255C342.025 197.701 346.613 203.42 346.048 212.219C345.733 213.79 344.665 213.539 343.659 213.161C337.626 211.025 331.655 208.762 325.748 206.437C323.988 205.745 323.737 204.488 324.742 202.917C325.811 201.22 327.256 199.838 328.01 197.952C318.52 197.387 310.916 203.609 308.967 210.962C308.088 214.293 307.208 217.624 305.637 220.703C303.06 220.955 302.746 218.503 301.489 217.184C300.043 215.675 299.54 213.224 296.964 212.784C294.952 212.847 293.004 212.407 290.993 212.659C284.457 213.476 281.817 218.943 285.337 224.537C286.405 226.234 288.039 227.428 288.856 229.313C289.296 232.393 291.999 234.592 292.313 237.735C286.908 241.82 285.588 248.293 282.823 253.887C282.32 254.892 282.006 256.023 280.875 256.652C279.618 256.966 278.361 257.029 277.104 257.155C273.773 256.84 270.442 256.338 267.111 256.212C252.405 255.584 239.144 265.702 235.939 280.22C230.597 304.416 225.443 328.738 220.478 352.997C218.153 364.436 221.798 372.669 231.728 378.953C233.99 380.399 234.933 382.159 235.247 384.798C236.63 396.613 237.07 408.617 239.395 420.307C243.48 440.984 261.643 457.701 282.634 460.467C288.668 461.284 294.701 461.284 300.797 460.655C306.202 460.09 311.67 460.529 317.138 460.467C320.029 460.467 322.857 460.467 325.748 460.467C335.678 459.775 345.545 461.221 355.475 461.032C361.822 460.907 368.233 460.969 374.58 461.032C378.477 461.095 379.231 461.786 379.294 465.557C379.42 469.705 379.357 473.916 379.294 478.064C379.294 479.321 379.231 480.578 378.54 481.709C372.883 487.303 366.284 490.571 358.177 490.508C348.184 490.508 338.192 489.502 328.199 489.942C327.193 490.005 325.811 489.251 325.245 490.822C327.445 500.438 329.707 509.991 331.844 519.606C336.243 539.529 340.58 559.452 344.979 579.374C348.876 597.16 352.835 614.946 356.732 632.732C357.36 635.56 357.863 638.388 358.429 641.216C358.617 642.159 359.246 643.102 357.8 643.479C356.229 643.919 355.789 642.473 355.663 641.53C355.098 636.314 353.652 631.349 352.584 626.259C349.944 613.563 347.242 600.868 344.476 588.236C342.025 576.797 339.574 565.422 336.872 554.047C334.106 542.106 331.53 530.039 328.702 518.098C326.753 509.739 324.868 501.38 322.982 493.022C322.731 492.016 322.417 491.073 322.165 490.131C315.629 490.005 309.03 489.439 302.494 490.445C301.489 490.571 300.42 490.508 299.352 490.508C286.405 490.508 273.396 490.508 260.449 490.508C259.192 490.508 257.935 490.319 256.741 490.759C255.61 491.262 255.296 492.33 254.919 493.399C254.667 494.153 254.541 494.907 254.479 495.724C252.97 502.009 251.336 508.231 250.079 514.578C249.954 515.27 249.702 515.835 249.576 516.527C247.691 524.257 246.183 532.05 244.297 539.717C243.857 540.849 243.857 542.043 243.606 543.174C239.835 560.017 236.316 576.86 232.545 593.703C232.356 594.52 231.979 595.275 231.979 596.155C230.659 603.193 228.962 610.17 227.517 617.208C227.391 617.837 227.203 618.465 226.826 618.968C226.889 619.345 226.7 619.534 226.511 619.785Z" fill="black"/>
<path d="M378.351 605.393C378.414 594.897 378.414 584.465 378.477 573.969C378.1 573.466 378.226 572.901 378.351 572.335C378.603 563.537 378.477 554.801 378.414 546.002C378.414 542.357 378.54 541.917 382.311 541.477C392.995 540.094 403.679 539.026 414.363 537.832C418.385 537.392 422.47 536.826 426.493 536.512C428.692 536.324 429.698 535.255 429.635 533.055C429.446 526.079 430.075 519.04 429.195 512.064C428.567 506.974 429.258 505.78 434.034 504.083C439.251 502.197 444.404 500.186 449.746 498.615C452.134 498.489 452.637 500.186 453.014 502.009C454.837 510.116 456.722 518.161 458.356 526.331C458.482 527.148 458.608 527.965 458.859 528.782C460.556 536.386 462.379 544.054 463.887 551.721C464.452 554.675 465.835 556.498 468.726 557.566C476.582 560.646 484.312 564.039 492.105 567.307C493.614 567.936 495.373 568.313 496.002 570.198C496.442 578.997 496.693 587.859 495.876 596.657C495.436 597.914 494.117 597.16 493.362 597.726C487.518 598.983 481.673 600.24 475.828 601.496C466.464 603.57 457.099 605.707 447.107 607.907C451.066 610.798 454.648 613.375 458.231 615.951C461.562 618.34 465.144 620.476 468.223 623.179C474.005 628.144 476.016 634.869 476.456 642.222C475.639 642.913 474.634 642.599 473.754 642.599C442.644 642.599 411.598 642.599 380.488 642.599C379.608 642.599 378.603 643.102 377.911 642.096C377.911 640.776 377.911 639.456 377.911 638.137C378.477 633.549 378.037 628.961 378.163 624.373C378.288 618.088 377.911 611.741 378.351 605.393Z" fill="#8F3600"/>
<path d="M495.248 597.223C495.248 587.984 495.248 578.683 495.248 569.444C494.682 568.313 494.368 567.119 494.368 565.862C494.431 553.607 494.242 541.351 494.431 529.096C494.431 528.279 494.431 527.462 494.431 526.645C494.242 510.493 494.368 494.404 494.368 478.253C494.368 454.559 494.368 430.928 494.368 407.235C494.368 401.578 492.985 396.488 489.089 392.214C484.689 387.312 479.222 385.112 472.623 385.112C444.781 385.301 416.877 384.987 389.035 385.112C387.464 385.112 385.893 385.175 384.322 385.05C383.693 385.05 383.128 385.05 382.499 385.05C365.467 385.238 348.373 385.175 331.341 385.112C310.979 385.238 290.553 385.175 270.191 385.112C266.357 385.112 265.666 384.358 266.168 381.656C267.802 380.336 269.751 380.713 271.573 380.713C303.311 380.713 334.986 380.65 366.724 380.713C369.992 380.713 372.695 379.959 374.706 377.319C375.209 376.628 375.963 376 375.649 375.12C375.272 374.177 374.203 374.365 373.449 374.428C368.861 374.68 364.273 373.486 359.685 373.737C359.183 373.737 358.617 373.737 358.114 373.611C356.92 373.423 355.663 373.046 355.663 371.663C355.6 370.029 356.983 369.589 358.24 369.526C362.702 369.212 367.227 369.463 371.752 369.401C372.821 369.401 373.826 369.463 374.895 369.338C375.9 369.212 377.157 369.401 377.22 367.892C377.283 366.384 376.026 366.384 375.02 366.321C373.763 366.195 372.506 366.258 371.249 366.258C367.793 366.258 364.336 366.258 360.88 366.258C359.811 366.258 358.743 366.258 357.8 365.881C356.669 365.441 355.726 364.75 355.852 363.367C355.977 362.173 356.92 361.67 357.989 361.419C358.931 361.23 359.874 361.23 360.817 361.23C365.09 361.23 369.427 361.167 373.7 361.293C374.392 361.293 375.335 361.733 375.649 360.853C375.963 360.099 375.272 359.533 374.769 358.968C373.198 357.208 371.187 356.014 368.861 355.574C360.628 354.129 352.458 352.306 343.974 353.5C341.711 353.814 339.386 353.877 337.123 353.374C335.992 353.123 334.861 352.557 334.861 351.175C334.861 349.604 335.992 349.038 337.312 348.849C339.574 348.535 341.9 348.598 344.225 348.724C347.305 348.912 350.007 347.844 352.647 346.524C353.966 345.833 355.286 344.89 354.658 343.13C354.092 341.496 352.647 341.245 351.075 341.308C349.064 341.37 347.053 342.879 345.042 341.433C344.414 340.491 344.351 339.485 344.351 338.417C344.288 329.744 344.288 321.071 344.351 312.461C344.351 311.518 344.476 310.575 344.791 309.695C352.772 298.948 361.068 288.516 369.238 277.894C371.501 274.941 373.638 271.798 376.152 268.97C377.597 267.336 377.283 266.142 375.523 264.885C372.192 262.497 369.113 259.857 365.907 257.28C365.405 256.778 364.902 256.275 364.336 255.835C363.393 255.144 362.451 254.578 361.445 253.95C358.366 251.561 355.349 249.173 352.332 246.785C351.075 245.779 349.881 245.465 348.31 245.905C345.608 246.596 342.905 246.219 340.328 245.088C338.317 244.145 337.123 242.825 337.563 240.437C337.94 240.06 338.38 239.997 338.82 240.06C339.323 240.186 339.763 240.5 340.203 240.689C344.099 242.7 344.791 242.574 347.493 239.18C349.19 237.106 350.761 234.907 352.458 232.77C354.783 229.879 354.658 228.748 352.144 226.108C350.824 224.725 349.316 223.657 347.43 223.28C339.511 222.149 333.918 228.936 336.62 236.415C336.997 237.546 337.563 240.437 337.563 240.437C337.563 240.437 334.546 240.06 333.541 239.055C332.598 237.735 332.85 235.661 331.655 234.844C330.273 233.901 328.89 235.912 327.319 235.975C326.502 236.038 325.685 236.101 324.805 236.038C323.234 235.409 321.223 235.535 320.531 233.524C321.788 232.267 323.485 232.833 324.994 232.581C328.827 231.89 331.593 229.753 332.661 226.045C333.729 222.463 333.29 218.881 330.21 216.304C327.319 213.916 324.239 212.344 320.531 213.853C315.315 215.927 312.801 222.903 315.441 227.931C316.069 229.125 317.138 230.067 317.201 231.513C315.315 232.644 314.624 232.393 312.047 229.816C309.407 224.285 309.596 219.006 313.681 214.356C317.389 210.145 322.165 208.762 327.633 210.333C332.221 211.653 335.049 214.984 336.62 219.321C337.249 221.08 337.689 221.709 339.574 220.64C341.271 219.698 343.094 218.755 345.168 219.509L349.441 220.64C354.281 222.589 357.36 226.045 357.926 231.324C358.114 233.21 358.868 234.278 360.251 235.409C373.323 245.591 386.333 255.961 399.531 266.016C405.313 270.416 408.267 275.946 408.015 283.174C407.575 284.871 407.575 284.871 408.644 285.122C409.964 283.488 411.283 281.854 412.54 280.22C413.232 279.34 414.111 279.026 414.991 279.654C415.871 280.346 415.871 281.351 415.054 282.105C413.672 283.488 414.363 284.368 415.683 285.248C417.191 286.316 418.699 287.51 420.145 288.704C421.276 289.647 421.59 290.778 420.71 292.035C419.768 293.418 418.448 293.418 417.128 292.538C416.123 291.847 415.117 291.03 414.174 290.213C410.781 287.573 410.781 287.573 408.267 291.155C410.215 292.664 412.226 294.235 414.174 295.743C415.368 296.686 416.06 297.817 415.054 299.263C413.986 300.771 412.603 300.582 411.22 299.577C409.901 298.571 408.581 297.566 407.261 296.56C406.256 295.806 405.501 294.486 404.056 296.372C402.862 297.943 402.925 298.76 404.559 299.765C406.004 300.645 407.198 301.777 408.518 302.782C409.712 303.725 410.403 304.856 409.335 306.239C408.204 307.747 406.884 307.496 405.501 306.553C404.747 305.987 403.993 305.422 403.239 304.856C401.353 303.473 399.594 300.96 397.52 304.73C397.08 305.547 396.074 305.422 395.32 304.73C394.629 304.039 394.692 303.285 395.257 302.531C396.388 301.085 397.52 299.577 398.651 298.006C397.583 297.189 396.828 297.88 396.011 298.131C390.795 299.765 385.642 299.577 380.928 296.623C379.482 295.743 378.728 295.743 377.66 297.189C373.261 303.033 368.861 308.878 364.273 314.597C363.016 316.106 363.331 317.74 363.331 319.374C363.331 321.008 364.713 320.317 365.467 320.317C372.883 320.379 380.362 320.379 387.778 320.379C399.405 320.379 411.032 320.379 422.659 320.379C424.418 320.379 426.053 320.505 426.744 322.453C427.435 324.527 425.927 326.161 423.162 326.161C415.18 326.224 407.261 326.161 399.279 326.161C396.954 326.161 394.692 326.224 392.366 326.161C390.732 326.099 389.978 326.476 389.915 328.361C389.727 334.834 389.664 334.897 396.074 334.897C398.651 334.897 400.662 335.4 400.976 338.417C400.725 339.045 400.976 339.799 400.474 340.302C399.719 341.119 398.777 341.559 397.708 341.81C397.394 341.873 397.08 341.936 396.766 341.936C390.732 342.376 390.732 342.376 390.732 348.535C390.732 354.82 390.795 361.105 390.732 367.389C390.732 369.966 391.675 370.972 394.252 370.909C398.211 370.783 402.233 370.783 406.193 370.909C411.598 371.035 413.734 373.171 413.86 378.576C413.86 380.21 414.426 380.902 415.997 380.902C417.065 380.902 418.071 380.902 419.139 380.902C436.799 380.902 454.522 380.902 472.183 380.902C487.832 380.964 498.767 391.649 498.83 407.235C498.956 446.766 498.893 486.36 498.83 525.891C498.83 526.205 498.767 526.519 498.767 526.834C498.767 527.651 498.767 528.405 498.767 529.222C498.893 543.111 498.893 557.063 498.767 570.953C498.956 578.243 498.83 585.596 498.83 592.886C498.83 594.269 498.83 595.652 497.824 596.72C497.762 611.552 497.699 626.384 497.699 641.279C497.699 642.913 497.824 644.484 495.499 644.422C494.682 643.919 494.996 643.102 494.996 642.473C494.996 627.767 494.996 613.061 494.996 598.354C495.059 597.789 495.122 597.537 495.248 597.223Z" fill="black"/>
<path d="M398.525 340.679C399.217 340.302 399.845 339.862 400.537 339.485C401.542 339.045 402.61 339.234 403.616 339.234C469.606 339.234 535.533 339.234 601.523 339.234C602.591 339.234 603.597 339.108 604.665 339.422C612.961 342.502 615.35 345.958 615.35 354.82C615.35 395.419 615.35 435.956 615.35 476.555C615.35 477.812 615.475 479.069 615.538 480.326C616.606 480.955 617.801 480.641 618.869 480.641C628.233 480.641 637.598 480.641 646.962 480.703C647.967 480.703 649.036 480.263 649.916 481.143C649.916 501.443 649.853 521.743 649.979 541.98C649.979 544.871 649.224 545.751 646.27 545.688C637.158 545.499 628.045 545.751 618.995 545.562C615.852 545.499 615.224 546.505 615.287 549.396C615.475 559.451 615.098 569.507 615.412 579.5C615.664 587.293 608.625 593.892 601.397 593.452C593.793 593.012 593.856 593.389 593.73 600.994C593.604 607.278 594.233 613.5 593.353 619.785C593.164 619.911 592.976 620.099 592.787 620.099C581.286 620.099 569.722 620.351 558.221 619.974C557.341 618.968 557.718 617.774 557.718 616.643C557.655 609.855 557.593 603.068 557.781 596.28C557.844 593.892 557.027 593.326 554.764 593.326C540.875 593.389 526.986 593.326 513.097 593.263C514.856 590.875 517.559 591.441 519.947 591.064C546.846 591.252 573.744 591.189 600.643 591.064C608.436 591.064 612.773 587.167 612.961 579.437C613.401 563.851 613.087 548.265 613.15 532.678C613.15 530.542 612.081 529.662 610.07 529.724C608.939 529.724 607.745 529.724 606.614 529.724C572.299 529.724 537.921 529.724 503.607 529.724C501.658 529.724 499.584 530.164 497.887 528.656C497.887 528.09 497.887 527.462 497.887 526.896C499.584 525.451 501.658 525.828 503.607 525.828C538.047 525.828 572.487 525.828 606.928 525.828C613.15 525.828 613.15 525.828 613.15 519.732C613.15 465.62 613.15 411.508 613.15 357.396C613.15 355.511 613.213 353.626 612.898 351.74C611.893 345.707 607.808 342.125 601.712 341.936C600.266 341.873 598.758 341.936 597.312 341.936C533.019 341.936 468.789 341.936 404.496 341.936C402.422 341.81 400.222 342.376 398.525 340.679Z" fill="#5A83AF"/>
<path d="M345.231 219.51C342.151 220.013 339.197 220.956 336.558 223.03C336.055 217.373 333.604 213.288 328.387 211.214C323.8 209.392 319.589 210.146 315.755 213.1C310.979 216.808 309.91 222.338 312.55 229.566C312.173 229.754 311.67 229.88 311.356 229.629C308.59 227.115 306.014 224.538 305.385 220.641C306.454 217.248 307.459 213.854 308.528 210.523C310.727 203.295 315.818 199.336 322.92 197.639C325.119 197.074 327.382 196.822 330.021 196.319C328.827 199.21 327.005 201.284 325.559 203.547C324.931 204.552 324.428 205.244 326.062 205.809C332.221 208.072 338.38 210.397 344.476 212.723C345.231 213.037 345.859 212.974 346.299 212.283C346.613 214.734 345.922 217.122 345.231 219.51Z" fill="#FD9993"/>
<path d="M519.192 591.63C517.118 592.196 515.107 592.698 513.033 593.264C507.943 594.332 502.915 595.464 497.824 596.532C497.824 587.922 497.824 579.312 497.824 570.765C502.601 570.827 506.56 573.153 510.268 575.855C514.542 578.935 517.244 583.271 519.13 588.173C519.632 589.242 520.261 590.499 519.192 591.63Z" fill="#8F3600"/>
<path d="M604.666 339.422C537.544 339.422 470.486 339.422 403.365 339.422C402.422 339.422 401.479 339.485 400.537 339.485C400.725 339.045 400.851 338.542 401.039 338.103C402.171 339.548 403.742 338.857 405.124 338.92C470.297 338.982 535.533 338.92 600.706 338.982C602.026 338.92 603.471 338.48 604.666 339.422Z" fill="white"/>
<path d="M325.434 490.947C325.811 489.753 325.811 489.69 326.816 489.69C333.792 489.69 340.706 489.69 347.682 489.753C351.39 489.753 355.16 489.816 358.868 489.879C358.051 491.827 356.292 491.262 354.846 491.324C350.573 491.513 350.51 491.513 350.51 495.849C350.51 510.367 350.51 524.885 350.51 539.466C350.51 543.111 350.761 543.425 354.406 543.425C360.754 543.488 367.164 543.425 373.512 543.425C374.957 543.425 376.466 543.299 377.848 543.865C378.414 544.179 378.728 544.619 378.603 545.311C378.477 545.75 378.163 545.876 377.723 545.75C367.919 545.688 358.177 545.688 348.373 545.625C347.43 544.619 347.933 543.425 347.933 542.357C347.87 526.205 347.933 510.053 347.87 493.838C347.87 492.707 348.184 491.513 347.556 490.445C340.58 490.382 333.604 490.319 326.691 490.256C326.251 490.256 325.748 490.507 325.434 490.947Z" fill="#5983AF"/>
<path d="M377.911 642.222C378.728 642.285 379.545 642.473 380.362 642.473C411.786 642.473 443.147 642.473 474.571 642.473C475.199 642.473 475.828 642.41 476.456 642.347C475.639 643.541 474.32 643.039 473.251 643.039C442.456 643.039 411.723 643.039 380.928 643.039C379.922 643.039 378.603 643.604 377.911 642.222Z" fill="white"/>
<path d="M347.682 490.509C348.75 491.452 348.184 492.646 348.184 493.714C348.247 509.677 348.184 525.641 348.247 541.604C348.247 542.924 348.436 544.306 348.499 545.626C347.116 544.746 347.745 543.364 347.745 542.17C347.682 524.949 347.682 507.729 347.682 490.509Z" fill="white"/>
<path d="M495.248 597.224C495.248 611.679 495.31 626.071 495.373 640.526C495.373 641.783 495.562 643.04 495.625 644.234C494.179 643.417 494.808 641.971 494.808 640.84C494.745 627.579 494.808 614.318 494.745 601.057C494.745 599.863 495.499 598.166 493.425 597.726C493.865 597.224 494.556 597.286 495.248 597.224Z" fill="white"/>
<path d="M558.221 619.911C569.911 619.848 581.663 619.786 593.353 619.723C592.85 620.477 592.096 620.414 591.405 620.414C580.909 620.414 570.476 620.414 559.981 620.414C559.352 620.414 558.724 620.414 558.221 619.911Z" fill="white"/>
<path d="M649.916 481.08C639.546 480.514 629.113 481.017 618.743 480.829C617.675 480.829 616.481 481.394 615.538 480.326C625.971 480.326 636.403 480.326 646.773 480.326C647.842 480.326 649.099 479.823 649.916 481.08Z" fill="white"/>
<path d="M378.351 605.394C378.351 616.329 378.54 627.327 377.911 638.263C377.911 628.019 377.848 617.712 377.848 607.468C377.848 606.713 377.785 605.959 378.351 605.394Z" fill="white"/>
<path d="M377.848 545.751C377.974 545.688 378.162 545.625 378.351 545.688C378.477 545.877 378.728 546.002 378.728 546.191C378.728 555.052 379.042 563.914 378.539 572.775C378.539 573.153 378.477 573.592 378.477 573.97C377.471 573.027 377.911 571.833 377.911 570.701C377.848 562.343 377.848 554.047 377.848 545.751Z" fill="white"/>
<path d="M408.581 284.87C408.455 285.624 407.953 286.064 406.821 286.316C407.261 285.059 407.575 283.99 407.953 282.922C408.267 283.55 407.827 284.367 408.581 284.87Z" fill="#D2D2D2"/>
<path d="M325.748 460.907C331.593 451.543 337.5 442.178 343.345 432.751C351.892 418.925 360.44 405.036 368.987 391.146C369.804 389.764 371.249 389.764 372.506 389.449C375.837 388.632 379.231 387.941 382.625 387.25C383.128 387.124 383.63 387.061 384.133 386.998C390.229 385.427 396.388 384.61 402.736 384.359C415.306 383.793 426.178 393.409 428.943 404.658C431.269 414.086 433.406 423.638 435.605 433.066C440.382 453.868 445.347 474.671 450.123 495.473C450.374 496.667 451.003 497.861 450.186 499.118C444.718 501.13 439.313 503.392 433.72 505.152C430.766 506.094 430.012 507.603 430.138 510.557C430.452 518.287 430.326 526.017 430.577 533.747C430.64 536.261 429.949 537.204 427.372 537.455C412.1 539.027 396.891 540.849 381.619 542.42C379.608 542.609 379.042 543.237 379.042 545.249C379.105 553.293 378.98 561.338 378.917 569.382C378.917 570.513 379.168 571.707 378.603 572.776C378.54 563.726 378.477 554.739 378.414 545.688C378.414 545.186 378.414 544.746 378.414 544.243C377.408 542.986 377.534 541.478 377.534 540.032C377.534 521.932 377.534 503.832 377.534 485.732C377.534 484.475 377.597 483.218 378.037 482.024C379.042 475.802 378.288 469.517 378.477 463.295C378.54 461.284 376.843 462.101 375.9 462.038C366.096 461.913 356.229 461.913 346.425 461.787C339.511 461.724 332.661 461.536 325.748 461.41C325.559 461.284 325.496 461.158 325.622 461.033C325.559 460.907 325.685 460.907 325.748 460.907Z" fill="#8F3600"/>
<path d="M377.974 482.023C378.1 482.589 378.414 483.218 378.414 483.783C378.414 503.894 378.351 524.068 378.351 544.18C369.553 544.18 360.754 544.18 351.955 544.243C350.258 544.243 349.567 543.803 349.567 541.98C349.63 525.451 349.63 508.859 349.567 492.33C349.567 490.634 350.196 490.194 351.767 490.194C354.155 490.131 356.543 490.696 358.869 489.817C365.405 489.502 371.124 487.24 376.089 482.966C376.654 482.526 377.157 482.023 377.974 482.023Z" fill="white"/>
<path d="M297.215 212.031C296.712 212.848 297.341 213.539 297.404 214.294C295.832 219.698 294.073 225.04 290.427 229.503C289.862 229 289.296 229.251 288.668 229.44C287.788 228.434 286.845 227.492 285.965 226.423C283.577 223.532 282.132 220.327 283.766 216.682C285.4 213.037 288.731 211.842 292.439 211.717C294.135 211.717 295.644 211.968 297.215 212.031Z" fill="#FC9993"/>
<path d="M325.748 460.906C325.748 461.095 325.685 461.283 325.685 461.409C322.731 461.598 319.84 461.661 316.886 461.346C319.777 460.341 322.794 460.969 325.748 460.906Z" fill="#B0A8BB"/>
<path d="M450.123 499.118C445.095 477.624 440.067 456.067 435.04 434.573C432.777 424.958 430.64 415.279 428.252 405.664C424.481 390.517 410.466 381.97 395.194 385.427C391.549 386.244 387.841 386.998 384.196 387.752C383.127 386.558 383.19 385.364 384.196 384.17C401.353 384.107 418.511 384.107 435.731 384.044C448.112 384.044 460.43 384.044 472.811 384.044C486.323 384.044 495.373 393.157 495.373 406.732C495.373 445.697 495.373 484.663 495.373 523.566C495.373 524.634 495.31 525.64 495.31 526.708C494.305 527.713 493.048 527.651 491.791 527.651C481.547 527.651 471.303 527.651 461.058 527.651C459.927 527.651 458.733 527.713 457.79 526.896C455.905 518.349 453.957 509.802 452.071 501.255C451.757 500.249 451.883 498.929 450.123 499.118Z" fill="white"/>
<path d="M495.248 528.72C495.248 542.295 495.248 555.87 495.248 569.445C485.443 565.36 475.702 561.275 465.898 557.19C464.892 556.813 464.138 556.436 463.887 555.179C462.064 546.317 460.116 537.456 458.23 528.594C459.236 527.651 460.556 527.777 461.75 527.777C471.743 527.777 481.735 527.777 491.791 527.777C492.985 527.777 494.242 527.651 495.248 528.72Z" fill="white"/>
<path d="M495.248 528.719C482.867 528.719 470.549 528.657 458.168 528.657C457.602 528.217 457.665 527.588 457.728 527.023C470.234 526.96 482.741 526.897 495.248 526.834C495.248 527.462 495.248 528.091 495.248 528.719Z" fill="#5881AE"/>
<path d="M430.138 571.896C430.138 566.743 430.138 561.589 430.138 556.436C430.263 556.436 430.326 556.436 430.452 556.436C430.452 561.652 430.452 566.805 430.452 572.022C430.326 571.959 430.263 571.959 430.138 571.896Z" fill="#A84D22"/>
<path d="M398.526 340.68C399.783 340.743 401.04 340.805 402.296 340.805C468.161 340.805 533.962 340.931 599.826 340.68C609.128 340.68 614.093 346.21 614.093 354.883C613.904 411.006 613.967 467.129 614.093 523.189C614.093 526.143 613.464 527.086 610.385 527.023C573.87 526.897 537.293 526.96 500.779 526.96C499.836 526.96 498.893 526.897 497.95 526.897C497.888 518.853 497.825 510.745 497.825 502.701C497.825 471.088 497.825 439.476 497.825 407.801C497.825 391.523 487.895 381.719 471.554 381.719C452.826 381.719 434.035 381.719 415.306 381.719C414.175 381.719 413.043 381.719 411.975 381.719C411.724 380.839 412.352 380.399 412.603 379.897C414.489 375.686 412.038 371.726 407.324 371.664C402.296 371.601 397.269 371.538 392.241 371.664C390.418 371.726 389.978 371.098 389.978 369.338C390.041 361.042 390.104 352.809 389.978 344.513C389.915 341.748 390.921 340.68 393.561 340.743C395.132 340.805 396.829 340.68 398.526 340.68Z" fill="white"/>
<path d="M519.192 591.63C517.433 583.459 513.222 577.238 505.366 573.781C502.915 572.712 500.401 571.707 497.887 570.701C497.887 556.686 497.887 542.608 497.824 528.593C527.363 528.593 556.838 528.531 586.376 528.531C594.547 528.531 602.717 528.593 610.887 528.468C613.087 528.468 614.029 528.845 614.029 531.359C613.904 547.385 614.029 563.411 613.967 579.374C613.967 587.042 609.19 591.944 601.774 591.944C575.064 592.007 548.417 591.944 521.706 591.944C520.826 592.007 520.009 591.755 519.192 591.63Z" fill="white"/>
<path d="M277.567 381.845C274.11 372.48 274.27 362.739 271.19 353.249C270.499 351.112 281.275 351.363 282.532 351.363C290.891 351.363 276.413 351.363 284.709 351.363C285.966 351.363 287.222 351.238 288.479 351.175C289.611 350.546 290.868 350.546 292.125 350.546C294.513 350.546 296.964 350.421 299.352 350.546C309.722 351.301 319.778 349.918 329.33 345.77C333.415 344.513 337.501 343.193 341.586 341.999C342.78 341.622 343.974 341.119 345.231 341.496C346.613 341.119 348.059 340.742 349.442 340.365C352.647 339.485 355.412 340.428 355.978 342.879C356.606 345.77 354.218 346.65 352.27 347.844C348.31 350.232 344.037 349.415 339.826 349.541C338.883 349.604 337.94 349.541 336.998 349.541C335.992 349.541 335.049 349.729 335.049 351.049C335.049 352.18 335.929 352.369 336.809 352.369C339.637 352.369 342.466 352.495 345.294 352.306C354.155 351.615 362.765 353.06 371.313 355.323C374.643 356.203 376.466 358.968 377.912 362.236C373.135 362.236 368.61 362.236 364.085 362.236C362.325 362.236 360.503 362.173 358.743 362.173C357.737 362.173 356.418 361.922 356.292 363.43C356.166 365.127 357.675 365.001 358.743 365.064C364.399 365.19 370.056 365.378 375.712 365.316C377.849 365.316 378.603 365.818 378.477 368.081C378.414 370.029 377.786 370.532 375.9 370.469C370.37 370.281 364.839 370.218 359.246 370.218C358.052 370.218 356.103 369.526 356.103 371.6C356.103 373.36 357.926 372.92 359.12 372.92C365.279 372.983 371.438 372.92 377.786 372.92C376.089 379.142 372.947 381.656 367.416 381.656C335.049 381.656 317.012 381.845 284.709 381.845C283.389 381.907 278.824 381.782 277.567 381.845Z" fill="#FD9993"/>
<path d="M320.531 233.399C319.023 233.336 318.08 232.33 317.012 231.513C314.938 228.497 312.801 225.543 313.555 221.52C314.498 216.116 319.4 212.156 324.742 212.722C330.273 213.35 334.232 217.875 334.106 223.406C333.981 228.874 329.581 233.273 324.051 233.399C322.857 233.399 321.663 233.399 320.531 233.399Z" fill="#FD9993"/>
<path d="M382.813 387.94C378.225 389.009 373.575 390.077 368.987 391.146C357.737 390.454 346.487 389.637 335.238 389.26C331.278 389.135 332.598 385.992 331.53 384.232C348.624 384.232 365.719 384.232 382.813 384.232C383.756 385.489 383.693 386.683 382.813 387.94Z" fill="white"/>
<path d="M347.493 222.464C349.693 222.715 351.389 223.846 352.835 225.355C355.6 228.246 355.663 229.503 353.212 232.645C351.138 235.348 348.813 237.924 346.99 240.815C345.608 243.078 344.162 243.078 342.151 242.261C340.894 241.758 339.574 241.444 338.757 240.313C338.443 237.296 340.14 234.845 340.894 232.079C341.522 230.948 341.9 229.754 342.025 228.497C342.214 227.492 342.528 226.486 342.779 225.48C343.408 223.029 344.791 221.772 347.493 222.464Z" fill="white"/>
<path d="M347.493 222.463C345.231 222.211 344.036 223.154 343.722 225.479C343.534 226.674 342.968 227.868 342.591 228.999C341.837 229.439 340.517 228.81 340.14 229.942C339.7 231.136 341.145 231.324 341.523 232.078C341.02 234.969 339.951 237.672 338.82 240.311C338.506 240.311 338.129 240.311 337.815 240.311C337.563 240.06 337.312 239.746 337.06 239.494C337.312 238.3 336.306 237.609 335.929 236.666C334.421 232.77 334.735 228.999 337.563 225.794C340.077 222.903 343.408 221.331 347.493 222.463Z" fill="#FB9893"/>
<path d="M333.855 238.489C331.027 237.483 328.136 236.415 325.308 235.409C328.073 235.661 330.147 234.027 332.347 232.707C332.85 234.718 333.352 236.604 333.855 238.489Z" fill="#F89893"/>
<path d="M382.813 387.941C382.813 386.747 382.813 385.49 382.813 384.296C383.253 384.296 383.756 384.296 384.196 384.296C384.196 385.49 384.196 386.684 384.196 387.878C383.693 387.815 383.253 387.878 382.813 387.941Z" fill="#5882AE"/>
<path d="M615.349 512.945C615.349 503.643 615.412 494.342 615.286 485.041C615.286 482.967 615.601 482.087 617.989 482.15C627.165 482.275 636.403 482.275 645.579 482.15C647.527 482.15 648.344 482.527 648.281 484.726C648.219 503.643 648.219 522.561 648.281 541.541C648.281 543.489 647.904 544.369 645.705 544.306C636.403 544.18 627.102 544.18 617.8 544.306C615.538 544.306 615.286 543.363 615.286 541.541C615.349 531.988 615.349 522.435 615.349 512.945Z" fill="white"/>
<path d="M575.755 618.529C571.168 618.529 566.58 618.466 561.929 618.592C559.981 618.654 559.164 618.214 559.226 616.015C559.352 609.353 559.352 602.628 559.226 595.966C559.164 593.83 559.981 593.39 561.929 593.39C571.105 593.452 580.343 593.452 589.519 593.39C591.467 593.39 592.284 593.83 592.221 595.966C592.096 602.628 592.096 609.353 592.221 616.015C592.284 618.152 591.467 618.654 589.519 618.592C584.994 618.466 580.343 618.529 575.755 618.529Z" fill="white"/>
<path d="M325.308 329.053C326.062 329.744 326.627 330.498 326.816 331.567C327.947 336.532 329.078 341.497 330.21 346.399C322.102 349.541 313.995 352.118 305.071 351.489C299.603 351.049 294.01 351.301 288.479 351.238C287.473 337.6 286.468 323.962 285.399 310.324C285.274 308.879 285.085 307.433 284.897 305.988C283.263 302.908 283.577 299.514 283.388 296.246C282.697 284.18 281.44 272.176 281.189 260.109C281.189 259.04 281.063 257.846 281.754 256.841C288.856 257.532 295.895 258.223 302.997 258.915C305.322 259.229 307.585 259.543 309.91 259.858C310.35 260.297 310.853 260.737 310.978 261.366C312.738 268.593 315.315 275.758 314.498 283.425C314.749 286.128 313.429 286.945 310.413 285.939C315.503 300.583 320.405 314.786 325.308 329.053Z" fill="black"/>
<path d="M428.693 467.128C428.693 458.141 428.693 449.154 428.693 440.104C428.63 425.083 417.254 413.708 402.234 413.645C393.435 413.582 384.636 413.708 375.901 413.142C375.146 413.08 374.015 413.394 373.827 412.325C373.638 411.131 374.706 411.068 375.523 411.068C386.27 411.383 397.08 410.251 407.827 411.823C420.334 413.645 430.012 424.329 430.766 436.899C431.898 456.884 431.081 476.87 431.332 496.855C431.332 497.672 431.709 499.055 430.264 498.992C428.818 498.992 428.881 497.672 428.881 496.604C428.881 486.737 428.881 476.933 428.881 467.066C428.755 467.128 428.755 467.128 428.693 467.128Z" fill="#FEFDFD"/>
<path d="M290.49 229.502C292.816 224.411 295.141 219.384 297.466 214.293C299.603 217.184 301.74 220.012 303.94 222.903C304.191 223.72 304.254 224.537 303.814 225.354C301.803 229.314 299.163 232.77 295.769 235.598C295.392 235.913 294.89 236.101 294.324 235.913C293.004 233.776 291.747 231.639 290.49 229.502Z" fill="#010101"/>
<path d="M294.261 235.913C298.346 232.205 301.991 228.245 303.877 222.903C304.254 223.406 304.568 223.909 304.882 224.412C308.087 229.439 308.087 229.502 303.877 233.902C302.683 235.159 301.237 236.29 299.917 237.421C296.335 240.375 296.272 240.375 294.261 235.913Z" fill="#FD9A94"/>
<path d="M325.873 222.84C325.811 224.097 325.182 224.851 323.925 224.851C322.857 224.851 322.103 224.223 322.04 223.155C321.914 221.898 322.668 221.081 323.862 221.018C324.931 220.892 325.748 221.52 325.873 222.84Z" fill="#100A09"/>
<path d="M341.46 232.079C340.266 232.079 339.134 231.953 338.82 230.507C338.631 229.753 338.883 229.062 339.511 228.559C340.643 227.679 341.648 228.245 342.591 228.999C342.905 230.319 342.528 231.324 341.46 232.079Z" fill="#0C0909"/>
<path d="M465.213 555.16L428.475 565.899L428.475 569.855C428.475 573.246 439.137 614.139 439.137 614.139L522.409 591.826C525.759 590.928 519.976 578.277 512.124 574.498C504.272 570.719 488.347 563.098 487.459 562.849C486.572 562.599 471.43 557.421 465.213 555.16Z" fill="black"/>
<path d="M285.48 198.785C285.247 198.445 285.026 198.082 284.924 197.682C284.818 197.265 284.89 196.852 285.096 196.421C287.836 190.845 290.045 184.932 293.772 179.825C297.903 174.231 304.803 172.079 311.209 174.958C323.912 180.579 336.55 186.339 349.118 192.066C356.547 195.517 360.115 202.906 358.585 210.842C357.975 214.12 357.225 217.33 355.949 220.375V220.375C354.72 223.253 352.375 226.197 349.418 225.172C349.139 225.076 348.858 224.986 348.575 224.911C347.924 224.738 347.273 224.547 346.659 224.269C343.57 222.873 340.144 222.29 337.153 220.687C336.595 220.388 336.107 219.978 335.647 219.542C332.083 216.167 327.886 214.136 322.958 213.881C321.916 213.827 320.88 213.661 319.892 213.326C316.688 212.239 313.388 211.455 310.454 209.765C303.071 206.76 295.787 203.548 288.408 200.716C287.29 200.257 286.171 199.797 285.48 198.785Z" fill="#6DB5DE"/>
<path d="M436.388 595.289H379.303H377.607V642.766H475.951C479.908 642.766 477.27 629.578 469.734 624.114C462.198 618.651 446.9 607.61 445.996 607.158C445.092 606.706 439.214 599.057 436.388 595.289Z" fill="black"/>
<path d="M429.605 489.032V568.16" stroke="white" stroke-width="2" stroke-linecap="round"/>
<path d="M304.294 221.442L304.009 221.821C303.716 222.213 303.747 222.76 304.064 223.133C305.29 224.571 307.972 228.108 306.5 230C303 234.5 303 233.5 297 239C296.067 239.855 294.996 238.25 294.287 236.825C293.92 236.089 292.853 235.971 292.397 236.655L291.813 237.53C291.619 237.822 291.589 238.189 291.749 238.501C292.702 240.368 296.304 246.939 301 249.5C306.5 252.5 311.5 257 317 259.5C322.5 262 324.675 261.845 329 260.5C332.844 259.304 334.876 257.42 337 254C339.341 250.229 339.165 242.267 339.045 239.767C339.023 239.313 338.696 238.944 338.249 238.855C335.239 238.25 323.897 235.768 317.5 231.5C313.201 228.632 307.84 223.375 305.82 221.337C305.386 220.899 304.664 220.948 304.294 221.442Z" fill="white"/>
<path d="M322.218 262.48C317.77 260.601 310.08 259.994 310.08 259.994L303 259L326.77 348L347 341.039V309.218C347 309.218 344.979 281.662 333.345 270.436C329.51 266.736 327.155 264.566 322.218 262.48Z" fill="#6DB5DE"/>
<path fill-rule="evenodd" clip-rule="evenodd" d="M267.345 383.65C265.9 383.462 265.648 382.645 266.402 381.45C268.295 381.45 270.012 381.496 271.521 381.537C277.899 381.708 280.571 381.78 277.149 377.859C276.231 374.549 275.405 370.971 274.573 367.368C273.525 362.831 272.468 358.254 271.207 354.121C270.995 353.403 270.726 352.895 270.455 352.543L271.576 352.425C275.107 352.417 276.477 352.302 277.907 352.182C279.309 352.065 280.768 351.943 284.377 351.912C284.623 351.912 284.87 351.92 285.117 351.927C286.449 351.969 287.769 352.01 288.776 350.844C288.965 350.341 289.09 349.838 289.027 349.335C288.646 342.937 288.168 336.553 287.691 330.169C287.146 322.883 286.601 315.598 286.199 308.296C286.199 307.353 286.074 306.41 285.194 305.782C285.072 305.765 284.96 305.762 284.858 305.774C283.221 284.07 281.357 259.204 281.357 258.605C281.357 258.236 280.007 257.711 278.243 257.186C278.123 256.855 277.97 256.524 277.778 256.195C276.254 255.619 274.677 255.555 273.098 255.491C272.267 255.457 271.437 255.424 270.613 255.315C253.707 252.99 238.498 263.737 234.916 280.517C229.825 304.274 224.797 328.093 219.769 351.912C217.13 364.419 221.278 373.657 232.276 379.816C233.596 380.508 234.099 381.325 234.224 382.707C234.576 386.123 234.949 389.538 235.321 392.955C236.08 399.915 236.84 406.883 237.43 413.88C239.504 437.636 259.489 458.376 283.12 461.078C290.038 461.894 296.956 461.581 303.874 461.268C308.143 461.074 312.412 460.881 316.68 460.953C318.409 460.591 320.163 460.64 321.926 460.69C322.92 460.718 323.917 460.747 324.913 460.701C327.009 460.548 327.816 458.982 328.585 457.49C328.761 457.147 328.936 456.808 329.124 456.49C338.363 441.47 347.664 426.386 356.966 411.366C357.241 410.927 357.518 410.487 357.794 410.047C361.233 404.57 364.706 399.039 367.964 393.454C368.074 393.258 368.223 393.055 368.376 392.846C369.006 391.983 369.709 391.022 368.09 390.061C367.524 389.872 366.896 389.746 366.267 389.683C360.044 389.073 353.767 388.753 347.49 388.432C344.068 388.257 340.646 388.083 337.232 387.861L337.109 387.854C335.023 387.732 333.196 387.625 332.518 385.221C332.402 384.64 331.909 384.273 331.437 383.923C331.399 383.895 331.361 383.867 331.324 383.839L331.145 383.829C330.016 383.77 328.942 383.713 327.867 383.713H269.859C269.657 383.713 269.45 383.717 269.242 383.721C268.61 383.733 267.96 383.745 267.345 383.65Z" fill="#6DB5DE"/>
<path fill-rule="evenodd" clip-rule="evenodd" d="M272.866 264.495C273.347 262.362 275.118 260.441 278.053 258.937C280.958 257.449 284.722 256.53 288.548 256.279C292.379 256.027 296.098 256.458 298.913 257.513C301.771 258.585 303.292 260.119 303.65 261.845L303.685 262.011L303.719 262.176L303.753 262.341L303.788 262.506L303.822 262.67L303.856 262.833L303.89 262.996L303.923 263.159L303.957 263.321L303.991 263.483L304.024 263.644L304.058 263.804L304.091 263.964L304.124 264.123L304.157 264.282L304.19 264.441L304.223 264.599L304.256 264.756L304.288 264.913L304.321 265.07L304.353 265.226L304.385 265.381L304.418 265.536L304.45 265.69L304.482 265.844L304.514 265.998L304.545 266.151L304.577 266.303L304.609 266.455L304.64 266.607L304.672 266.758L304.703 266.908L304.734 267.058L304.765 267.208L304.796 267.357L304.827 267.505L304.858 267.653L304.889 267.801L304.919 267.948L304.95 268.095L304.98 268.241L305.01 268.386L305.04 268.531L305.07 268.676L305.1 268.82L305.13 268.964L305.16 269.107L305.19 269.25L305.219 269.392L305.249 269.534L305.278 269.675L305.307 269.816L305.337 269.956L305.366 270.096L305.395 270.235L305.424 270.374L305.452 270.513L305.481 270.651L305.51 270.788L305.538 270.925L305.566 271.062L305.595 271.198L305.623 271.333L305.651 271.469L305.679 271.603L305.707 271.737L305.735 271.871L305.762 272.004L305.79 272.137L305.818 272.27L305.845 272.401L305.872 272.533L305.9 272.664L305.927 272.794L305.954 272.924L305.981 273.054L306.007 273.183L306.034 273.312L306.061 273.44L306.087 273.568L306.114 273.695L306.14 273.822L306.167 273.948L306.193 274.074L306.219 274.199L306.245 274.324L306.271 274.449L306.296 274.573L306.322 274.697L306.348 274.82L306.373 274.943L306.399 275.065L306.424 275.187L306.449 275.308L306.474 275.429L306.5 275.55L306.525 275.67L306.549 275.79L306.574 275.909L306.599 276.028L306.623 276.146L306.648 276.264L306.672 276.381L306.697 276.498L306.721 276.615L306.745 276.731L306.769 276.847L306.793 276.962L306.817 277.077L306.841 277.191L306.864 277.305L306.888 277.419L306.912 277.532L306.935 277.644L306.958 277.757L306.982 277.868L307.005 277.98L307.028 278.091L307.051 278.201L307.074 278.311L307.096 278.421L307.119 278.53L307.142 278.639L307.164 278.747L307.187 278.855L307.209 278.963L307.231 279.07L307.254 279.177L307.276 279.283L307.298 279.389L307.32 279.494L307.341 279.599L307.363 279.704L307.385 279.808L307.406 279.912L307.428 280.015L307.449 280.118L307.471 280.221L307.492 280.323L307.513 280.424L307.534 280.526L307.555 280.627L307.576 280.727L307.597 280.827L307.617 280.927L307.638 281.026L307.659 281.125L307.679 281.223L307.699 281.321L307.72 281.419L307.74 281.516L307.76 281.613L307.78 281.709L307.8 281.806L307.82 281.901L307.84 281.996L307.859 282.091L307.879 282.186L307.899 282.28L307.918 282.373L307.938 282.466L307.957 282.559L307.976 282.652L307.995 282.744L308.014 282.835L308.033 282.927L308.052 283.017L308.071 283.108L308.09 283.198L308.108 283.288L308.127 283.377L308.145 283.466L308.164 283.554L308.182 283.643L308.2 283.73L308.218 283.818L308.237 283.905L308.255 283.991L308.272 284.078L308.29 284.163L308.308 284.249L308.326 284.334L308.343 284.419L308.361 284.503L308.378 284.587L308.396 284.67L308.413 284.754L308.43 284.836L308.447 284.919L308.464 285.001L308.481 285.083L308.498 285.164L308.515 285.245L308.532 285.325L308.549 285.406L308.565 285.485L308.582 285.565L308.598 285.644L308.614 285.723L308.631 285.801L308.647 285.879L308.663 285.957L308.679 286.034L308.695 286.111L308.711 286.187L308.727 286.263L308.743 286.339L308.758 286.415L308.774 286.49L308.789 286.564L308.805 286.639L308.82 286.713L308.836 286.786L308.851 286.86L308.866 286.933L308.881 287.005L308.896 287.077L308.911 287.149L308.926 287.221L308.941 287.292L308.955 287.363L308.97 287.433L308.985 287.503L308.999 287.573L309.014 287.642L309.028 287.712L309.042 287.78L309.056 287.849L309.071 287.917L309.085 287.984L309.099 288.052L309.113 288.119L309.126 288.185L309.14 288.252L309.154 288.318L309.168 288.383L309.181 288.448L309.195 288.513L309.208 288.578L309.221 288.642L309.235 288.706L309.248 288.77L309.261 288.833L309.274 288.896L309.287 288.959L309.3 289.021L309.313 289.083L309.326 289.144L309.339 289.206L309.351 289.266L309.364 289.327L309.376 289.387L309.389 289.447L309.401 289.507L309.414 289.566L309.426 289.625L309.438 289.684L309.45 289.742L309.462 289.8L309.474 289.858L309.486 289.915L309.498 289.972L309.51 290.029L309.521 290.085L309.533 290.141L309.545 290.197L309.556 290.253L309.568 290.308L309.579 290.362L309.59 290.417L309.602 290.471L309.613 290.525L309.624 290.578L309.635 290.632L309.646 290.685L309.657 290.737L309.668 290.79L309.679 290.842L309.689 290.893L309.7 290.945L309.711 290.996L309.721 291.046L309.732 291.097L309.742 291.147L309.753 291.197L309.763 291.246L309.773 291.296L309.783 291.345L309.793 291.393L309.803 291.442L309.813 291.49L309.823 291.537L309.833 291.585L309.843 291.632L309.853 291.679L309.862 291.725L309.872 291.772L309.882 291.818L309.891 291.863L309.901 291.909L309.91 291.954L309.919 291.998L309.928 292.043L309.938 292.087L309.947 292.131L309.956 292.175L309.965 292.218L309.974 292.261L309.983 292.304L309.992 292.346L310 292.389L310.009 292.43L310.018 292.472L310.026 292.513L310.035 292.554L310.043 292.595L310.052 292.636L310.06 292.676L310.068 292.716L310.077 292.756L310.085 292.795L310.093 292.834L310.101 292.873L310.109 292.912L310.117 292.95L310.125 292.988L310.133 293.026L310.141 293.063L310.148 293.1L310.156 293.137L310.164 293.174L310.171 293.21L310.179 293.246L310.186 293.282L310.194 293.318L310.201 293.353L310.208 293.388L310.215 293.423L310.223 293.458L310.23 293.492L310.237 293.526L310.244 293.56L310.251 293.593L310.258 293.626L310.264 293.659L310.271 293.692L310.278 293.724L310.285 293.757L310.291 293.788L310.298 293.82L310.304 293.852L310.311 293.883L310.317 293.914L310.324 293.944L310.33 293.975L310.336 294.005L310.343 294.035L310.349 294.064L310.355 294.094L310.361 294.123L310.367 294.152L310.367 294.154L310.355 294.156C310.369 294.203 310.383 294.249 310.397 294.296L310.402 294.32L310.408 294.347L310.413 294.374L310.419 294.401L310.424 294.428L310.43 294.454L310.435 294.48L310.44 294.506L310.446 294.531L310.451 294.556L310.456 294.581L310.461 294.606L310.466 294.631L310.472 294.655L310.477 294.679L310.482 294.703L310.486 294.727L310.491 294.75L310.496 294.773L310.501 294.796L310.506 294.819L310.51 294.842L310.515 294.864L310.52 294.886L310.524 294.908L310.529 294.929L310.533 294.951L310.537 294.972L310.542 294.993L310.546 295.014L310.55 295.034L310.555 295.054L310.559 295.074L310.563 295.094L310.567 295.114L310.571 295.133L310.575 295.152L310.579 295.171L310.583 295.19L310.587 295.209L310.59 295.227L310.594 295.245L310.598 295.263L310.602 295.281L310.605 295.298L310.609 295.315L310.612 295.333L310.616 295.349L310.619 295.366L310.623 295.382L310.626 295.399L310.629 295.415L310.633 295.431L310.636 295.446L310.639 295.462L310.642 295.477L310.645 295.492L310.649 295.507L310.652 295.521L310.655 295.536L310.658 295.55L310.66 295.564L310.663 295.578L310.666 295.591L310.669 295.605L310.672 295.618L310.674 295.631L310.677 295.644L310.68 295.657L310.682 295.669L310.685 295.681L310.687 295.693L310.69 295.705L310.692 295.717L310.695 295.729L310.697 295.74L310.699 295.751L310.702 295.762L310.704 295.773L310.706 295.783L310.708 295.794L310.71 295.804L310.712 295.814L310.715 295.824L310.717 295.834L310.718 295.843L310.72 295.852L310.722 295.861L310.724 295.87L310.726 295.879L310.728 295.888L310.73 295.896L310.731 295.905L310.733 295.913L310.735 295.921L310.736 295.928L310.738 295.936L310.739 295.943L310.741 295.95L310.742 295.957L310.744 295.964L310.745 295.971L310.746 295.978L310.748 295.984L310.749 295.99L310.75 295.996L310.752 296.002L310.753 296.008L310.754 296.014L310.755 296.019L310.756 296.024L310.757 296.029L310.758 296.034L310.759 296.039L310.76 296.044L310.761 296.048L310.762 296.052L310.763 296.056L310.764 296.06L310.764 296.064L310.765 296.068L310.766 296.071L310.767 296.075L310.767 296.078L310.768 296.081L310.769 296.084L310.769 296.087L310.77 296.089L310.77 296.092L310.771 296.094L310.771 296.096L310.772 296.098L310.772 296.1L310.772 296.102L310.773 296.104L310.773 296.105L310.773 296.106L310.773 296.107L310.774 296.108L310.774 296.109L310.774 296.11L310.774 296.111L310.774 296.111L310.774 296.112L310.774 296.112L310.836 296.099L312.325 303.264C309.727 304.052 307.522 305.177 305.709 306.638C303.896 308.099 302.472 309.818 301.435 311.795C300.398 313.772 299.748 315.951 299.486 318.332C299.223 320.713 299.362 323.202 299.902 325.8L303.67 343.92L313.919 341.789C314.474 341.674 314.912 341.368 315.232 340.873C315.552 340.377 315.654 339.848 315.537 339.285C315.42 338.722 315.116 338.277 314.625 337.95C314.133 337.623 313.61 337.517 313.055 337.633L306.905 338.911L303.86 324.266C303.375 322.04 303.301 319.967 303.636 318.045C303.972 316.123 304.629 314.406 305.606 312.893C306.583 311.38 307.889 310.103 309.521 309.064C311.154 308.024 313.049 307.28 315.206 306.832C317.554 306.344 319.679 306.275 321.578 306.625C323.478 306.975 325.184 307.682 326.697 308.745C328.21 309.808 329.47 311.206 330.476 312.939C331.482 314.673 332.224 316.686 332.701 318.981L335.604 332.945L329.454 334.223C328.899 334.339 328.461 334.644 328.141 335.14C327.821 335.636 327.719 336.165 327.836 336.728C327.953 337.291 328.258 337.736 328.749 338.063C329.24 338.39 329.763 338.495 330.318 338.38L340.568 336.249L336.801 318.129C336.239 315.535 335.375 313.197 334.206 311.114C333.038 309.03 331.574 307.291 329.813 305.895C328.053 304.5 326.05 303.493 323.806 302.876C321.561 302.258 319.101 302.104 316.425 302.411L314.879 294.975C314.767 294.406 314.635 293.847 314.482 293.298L314.284 293.34L314.283 293.338L314.277 293.309L314.271 293.28L314.265 293.25L314.259 293.221L314.253 293.191L314.246 293.16L314.24 293.13L314.234 293.099L314.227 293.069L314.221 293.037L314.214 293.006L314.208 292.974L314.201 292.942L314.194 292.91L314.188 292.878L314.181 292.845L314.174 292.812L314.167 292.779L314.16 292.745L314.153 292.712L314.146 292.678L314.139 292.643L314.132 292.609L314.124 292.574L314.117 292.539L314.11 292.504L314.102 292.468L314.095 292.432L314.087 292.396L314.08 292.36L314.072 292.323L314.065 292.286L314.057 292.249L314.049 292.211L314.041 292.174L314.033 292.136L314.025 292.097L314.017 292.059L314.009 292.02L314.001 291.981L313.993 291.941L313.985 291.902L313.976 291.862L313.968 291.822L313.96 291.781L313.951 291.74L313.943 291.699L313.934 291.658L313.925 291.616L313.917 291.574L313.908 291.532L313.899 291.49L313.89 291.447L313.881 291.404L313.872 291.36L313.863 291.317L313.854 291.273L313.845 291.229L313.835 291.184L313.826 291.139L313.817 291.094L313.807 291.049L313.798 291.003L313.788 290.957L313.779 290.911L313.769 290.865L313.759 290.818L313.749 290.771L313.74 290.723L313.73 290.675L313.72 290.627L313.71 290.579L313.7 290.53L313.689 290.481L313.679 290.432L313.669 290.383L313.658 290.333L313.648 290.283L313.638 290.232L313.627 290.181L313.616 290.13L313.606 290.079L313.595 290.027L313.584 289.975L313.573 289.923L313.562 289.87L313.551 289.818L313.54 289.764L313.529 289.711L313.518 289.657L313.507 289.603L313.495 289.548L313.484 289.493L313.472 289.438L313.461 289.383L313.449 289.327L313.438 289.271L313.426 289.215L313.414 289.158L313.402 289.101L313.39 289.044L313.378 288.986L313.366 288.928L313.354 288.87L313.342 288.811L313.33 288.752L313.317 288.693L313.305 288.633L313.293 288.573L313.28 288.513L313.267 288.452L313.255 288.391L313.242 288.33L313.229 288.269L313.216 288.207L313.203 288.144L313.19 288.082L313.177 288.019L313.164 287.956L313.151 287.892L313.138 287.828L313.124 287.764L313.111 287.699L313.097 287.634L313.084 287.569L313.07 287.503L313.056 287.437L313.043 287.371L313.029 287.304L313.015 287.237L313.001 287.17L312.987 287.102L312.973 287.034L312.959 286.966L312.944 286.897L312.93 286.828L312.915 286.759L312.901 286.689L312.886 286.619L312.872 286.549L312.857 286.478L312.842 286.407L312.827 286.335L312.812 286.263L312.797 286.191L312.782 286.118L312.767 286.046L312.752 285.972L312.737 285.899L312.721 285.825L312.706 285.75L312.69 285.676L312.675 285.6L312.659 285.525L312.643 285.449L312.627 285.373L312.611 285.297L312.595 285.22L312.579 285.142L312.563 285.065L312.547 284.987L312.531 284.908L312.514 284.83L312.498 284.751L312.481 284.671L312.465 284.591L312.448 284.511L312.431 284.431L312.415 284.35L312.398 284.268L312.381 284.187L312.364 284.105L312.346 284.022L312.329 283.939L312.312 283.856L312.295 283.773L312.277 283.689L312.26 283.604L312.242 283.52L312.224 283.435L312.207 283.349L312.189 283.263L312.171 283.177L312.153 283.091L312.135 283.004L312.117 282.916L312.098 282.828L312.08 282.74L312.062 282.652L312.043 282.563L312.025 282.474L312.006 282.384L311.987 282.294L311.968 282.203L311.949 282.112L311.93 282.021L311.911 281.93L311.892 281.838L311.873 281.745L311.854 281.652L311.834 281.559L311.815 281.465L311.795 281.371L311.776 281.277L311.756 281.182L311.736 281.087L311.716 280.991L311.696 280.895L311.676 280.799L311.656 280.702L311.636 280.605L311.616 280.507L311.595 280.409L311.575 280.311L311.554 280.212L311.534 280.113L311.513 280.013L311.492 279.913L311.471 279.812L311.45 279.712L311.429 279.61L311.408 279.509L311.387 279.406L311.366 279.304L311.344 279.201L311.323 279.098L311.301 278.994L311.279 278.89L311.258 278.785L311.236 278.68L311.214 278.575L311.192 278.469L311.17 278.362L311.148 278.256L311.125 278.149L311.103 278.041L311.081 277.933L311.058 277.825L311.035 277.716L311.013 277.607L310.99 277.497L310.967 277.387L310.944 277.276L310.921 277.166L310.898 277.054L310.875 276.942L310.851 276.83L310.828 276.718L310.804 276.604L310.781 276.491L310.757 276.377L310.733 276.263L310.709 276.148L310.685 276.032L310.661 275.917L310.637 275.801L310.613 275.684L310.589 275.567L310.564 275.45L310.54 275.332L310.515 275.213L310.49 275.095L310.466 274.975L310.441 274.856L310.416 274.736L310.391 274.615L310.366 274.494L310.34 274.373L310.315 274.251L310.29 274.129L310.264 274.006L310.238 273.883L310.213 273.759L310.187 273.635L310.161 273.51L310.135 273.385L310.109 273.26L310.083 273.134L310.057 273.008L310.03 272.881L310.004 272.753L309.977 272.626L309.95 272.497L309.924 272.369L309.897 272.24L309.87 272.11L309.843 271.98L309.816 271.85L309.789 271.719L309.761 271.587L309.734 271.455L309.706 271.323L309.679 271.19L309.651 271.057L309.623 270.923L309.595 270.789L309.567 270.654L309.539 270.519L309.511 270.384L309.483 270.248L309.454 270.111L309.426 269.974L309.397 269.837L309.369 269.699L309.34 269.56L309.311 269.421L309.282 269.282L309.253 269.142L309.224 269.002L309.194 268.861L309.165 268.72L309.136 268.578L309.106 268.436L309.076 268.293L309.047 268.15L309.017 268.006L308.987 267.862L308.957 267.717L308.926 267.572L308.896 267.426L308.866 267.28L308.835 267.134L308.805 266.987L308.774 266.839L308.743 266.691L308.712 266.543L308.681 266.394L308.65 266.244L308.619 266.094L308.588 265.944L308.557 265.793L308.525 265.641L308.493 265.489L308.462 265.337L308.43 265.184L308.398 265.03L308.366 264.876L308.334 264.722L308.302 264.567L308.269 264.411L308.237 264.255L308.204 264.099L308.172 263.942L308.139 263.785L308.106 263.627L308.073 263.468L308.04 263.309L308.007 263.15L307.974 262.99L307.94 262.829L307.907 262.668L307.873 262.507L307.84 262.345L307.806 262.182L307.772 262.019L307.738 261.856L307.704 261.692L307.67 261.527L307.635 261.362L307.601 261.196L307.566 261.03C306.804 257.365 303.76 255.058 300.317 253.768C296.833 252.461 292.516 252.01 288.286 252.287C284.051 252.565 279.728 253.585 276.229 255.377C272.76 257.154 269.811 259.854 268.964 263.615C268.228 266.881 268.284 271.149 268.705 275.582C269.131 280.059 269.948 284.888 270.839 289.358C271.731 293.834 272.703 297.984 273.444 301.103L273.609 301.796L273.591 301.8C273.666 302.365 273.763 302.932 273.881 303.499L274.569 306.811C273.423 307.298 272.416 307.97 271.547 308.828C270.678 309.686 269.973 310.635 269.432 311.673C268.89 312.712 268.534 313.836 268.362 315.046C268.191 316.256 268.233 317.478 268.49 318.712C268.787 320.141 269.343 321.426 270.159 322.566C270.976 323.706 271.942 324.657 273.058 325.419C274.174 326.18 275.408 326.703 276.759 326.987C278.11 327.271 279.49 327.266 280.9 326.973C282.309 326.68 283.585 326.121 284.728 325.296C285.871 324.471 286.804 323.498 287.529 322.376C288.254 321.255 288.752 320.01 289.025 318.644C289.298 317.277 289.286 315.879 288.989 314.451C288.737 313.238 288.289 312.1 287.644 311.037C287 309.974 286.223 309.075 285.312 308.338C284.402 307.601 283.379 307.023 282.245 306.604C281.111 306.185 279.919 305.97 278.669 305.959L277.981 302.646C277.868 302.077 277.779 301.509 277.716 300.942L277.527 300.981L277.336 300.179C276.597 297.068 275.638 292.977 274.762 288.577C273.884 284.172 273.095 279.491 272.687 275.204C272.276 270.873 272.274 267.122 272.866 264.495ZM277.443 310.347C276.589 310.524 275.822 310.853 275.142 311.333C274.462 311.813 273.903 312.392 273.465 313.071C273.027 313.749 272.726 314.5 272.563 315.325C272.401 316.149 272.409 316.994 272.589 317.86C272.769 318.726 273.098 319.504 273.576 320.196C274.054 320.887 274.629 321.456 275.301 321.903C275.973 322.351 276.717 322.659 277.532 322.829C278.347 322.998 279.181 322.994 280.035 322.816C280.889 322.639 281.656 322.31 282.336 321.83C283.016 321.35 283.575 320.77 284.013 320.092C284.452 319.414 284.752 318.663 284.915 317.838C285.078 317.014 285.069 316.169 284.889 315.303C284.709 314.437 284.38 313.658 283.902 312.967C283.424 312.276 282.849 311.707 282.177 311.259C281.505 310.812 280.761 310.504 279.946 310.334C279.132 310.165 278.297 310.169 277.443 310.347Z" fill="white"/>
<path d="M292.25 237.672C295.141 242.825 298.912 247.225 303.814 250.556C305.448 251.687 305.825 252.63 304.882 254.389C304.128 255.835 303.626 257.406 302.997 258.977C302.557 259.731 301.803 259.857 301.112 259.794C294.827 259.166 288.542 258.789 282.32 257.595C282.006 257.469 281.629 257.28 281.377 257.092C281.252 256.966 281.126 256.778 281.063 256.652C282.634 253.132 284.331 249.676 285.714 246.093C287.034 242.511 288.856 239.494 292.25 237.672Z" fill="#FD9993"/>
<path d="M303.153 205.594C307.509 207.394 309.369 212.566 307.058 216.674C303.377 223.219 299.451 229.611 295.03 235.636C294.089 236.887 293.326 238.307 292.132 239.183C286.221 243.25 284.096 249.714 281.158 255.705C280.636 256.802 280.451 258.453 278.89 258.456C278.404 258.457 277.944 258.258 277.501 258.057C270.188 254.737 262.841 251.327 255.497 248.079C253.21 247.076 250.857 246.21 250.432 243.29C250.003 240.198 252.086 238.726 254.381 237.355C264.141 231.552 270.944 223.068 276.146 213.227C277.879 209.929 279.711 206.712 281.659 203.584C283.655 200.38 287.7 199.213 291.188 200.656C295.169 202.303 299.157 203.943 303.153 205.594Z" fill="black"/>
<path d="M289.742 226.415C287.642 230.826 281.804 232.427 279.302 228.229C277.289 224.851 276.869 221.297 278.368 218.362C279.853 215.349 282.952 213.521 286.8 213.081C291.521 212.542 293.766 217.96 291.723 222.251C291.063 223.639 290.402 225.027 289.742 226.415Z" fill="#FC9993"/>
<defs>
<linearGradient id="paint0_linear_881_753" x1="407.387" y1="55.0618" x2="395.242" y2="64.331" gradientUnits="userSpaceOnUse">
<stop stop-color="#DCDBDB"/>
<stop offset="0.463542" stop-color="#E6DFDF" stop-opacity="0.53"/>
</linearGradient>
<linearGradient id="paint1_linear_881_753" x1="433.295" y1="37.2874" x2="418.142" y2="39.2418" gradientUnits="userSpaceOnUse">
<stop stop-color="#DCDBDB"/>
<stop offset="0.463542" stop-color="#E6DFDF" stop-opacity="0.53"/>
</linearGradient>
<linearGradient id="paint2_linear_881_753" x1="447.076" y1="65.4789" x2="432.945" y2="71.2887" gradientUnits="userSpaceOnUse">
<stop stop-color="#DCDBDB"/>
<stop offset="0.463542" stop-color="#E6DFDF" stop-opacity="0.53"/>
</linearGradient>
<linearGradient id="paint3_linear_881_753" x1="428.538" y1="92.9662" x2="414.407" y2="98.776" gradientUnits="userSpaceOnUse">
<stop stop-color="#DCDBDB"/>
<stop offset="0.463542" stop-color="#E6DFDF" stop-opacity="0.53"/>
</linearGradient>
<linearGradient id="paint4_linear_881_753" x1="451.141" y1="83.947" x2="443.803" y2="97.3483" gradientUnits="userSpaceOnUse">
<stop stop-color="#DCDBDB"/>
<stop offset="0.463542" stop-color="#E6DFDF" stop-opacity="0.53"/>
</linearGradient>
<linearGradient id="paint5_linear_881_753" x1="473.999" y1="75.2745" x2="471.965" y2="90.4173" gradientUnits="userSpaceOnUse">
<stop stop-color="#DCDBDB"/>
<stop offset="0.463542" stop-color="#E6DFDF" stop-opacity="0.53"/>
</linearGradient>
<clipPath id="clip0_881_753">
<rect width="24" height="24" fill="white" transform="translate(154 68)"/>
</clipPath>
</defs>
</svg>
