<svg width="688" height="893" viewBox="0 0 688 893" fill="none" xmlns="http://www.w3.org/2000/svg">
<path d="M396.88 892.781H0.500549L0.500549 0.500793H396.88L396.88 892.781Z" stroke="#5A83AF"/>
<path d="M388.492 892.781H0.499664L0.499664 0.500793H388.492L388.492 892.781Z" fill="#F5F5F5" stroke="#5A83AF"/>
<path d="M364.791 20.7686L364.791 872.509H24.2038L24.2038 20.7686L364.791 20.7686Z" stroke="#5A83AF"/>
<path d="M324.176 143.414C328.767 154.498 331.161 166.367 331.226 178.361H57.7797C57.9111 153.975 67.655 130.617 84.9078 113.364C102.278 95.9936 125.838 86.2349 150.404 86.2349H238.601C250.765 86.2349 262.81 88.6307 274.047 93.2856C285.285 97.9404 295.496 104.763 304.097 113.364C312.699 121.965 319.521 132.176 324.176 143.414Z" fill="#FAFAFA" stroke="#5A83AF"/>
<path d="M331.229 616.789V819.508H57.7799V616.789H331.229Z" fill="#F5F5F5" stroke="#5A83AF"/>
<path d="M211.168 236.799H331.224V589.503H211.168V236.799Z" fill="#F5F5F5" stroke="#5A83AF"/>
<path d="M57.7783 236.799H177.835V589.503H57.7783V236.799Z" fill="#F5F5F5" stroke="#5A83AF"/>
<path d="M106.259 398.786C107.607 400.134 108.367 401.96 108.373 403.865C108.368 405.771 107.609 407.598 106.261 408.945C104.913 410.293 103.086 411.053 101.18 411.058H51.5984C49.6922 411.053 47.8654 410.293 46.5175 408.945C45.1697 407.598 44.4103 405.771 44.4053 403.865C44.4119 401.96 45.1718 400.134 46.5193 398.786C47.867 397.439 49.6929 396.679 51.5988 396.672H101.18C103.085 396.679 104.911 397.439 106.259 398.786Z" fill="#E0E0E0" stroke="#5A83AF"/>
<path d="M29.3604 20.7686L29.3604 872.509H24.2138L24.2138 20.7686H29.3604Z" stroke="#5A83AF"/>
<path d="M644.966 502.752C641.414 453.019 655.456 408.856 687.044 370.293C687.727 419.146 673.797 463.312 644.966 502.752Z" stroke="#5983AF"/>
<path d="M623.289 333.387C633.06 360.095 638.192 386.986 639.207 414.645C640.284 444.602 636.173 473.912 626.874 503.218C615.575 477.471 609.504 451.305 608.31 423.963L608.31 423.962C606.935 392.98 611.753 363.004 623.289 333.387Z" stroke="#5983AF"/>
<path d="M668.977 381.867L668.977 381.866C669.159 366.939 668.37 352.012 666.551 337.147C665.257 326.913 663.508 316.739 660.971 306.126C660.814 306.301 660.68 306.431 660.558 306.55C660.526 306.58 660.496 306.61 660.466 306.639C649.871 326.514 641.939 347.295 636.669 369.166C636.384 370.366 636.382 371.63 636.613 372.844C638.805 383.987 640.205 395.25 640.935 406.572L640.935 406.573C642.213 426.663 641.3 446.633 638.013 466.543L638.013 466.543C635.943 479.024 632.961 491.323 629.126 503.377M668.977 381.867L628.649 503.226M668.977 381.867C668.917 387.81 667.719 393.133 664.668 398.519L664.666 398.522C652.724 419.912 645.536 442.885 642.795 467.256L642.794 467.258C641.516 479.011 641.149 490.713 642.247 502.482C642.306 503.121 642.314 503.632 642.26 504.038C642.206 504.441 642.094 504.707 641.943 504.888C641.652 505.236 641.039 505.461 639.628 505.341L639.625 505.341C636.556 505.095 633.493 505.157 630.443 505.34M668.977 381.867L630.472 505.839M629.126 503.377C629.126 503.377 629.126 503.377 629.126 503.378L628.649 503.226M629.126 503.377C629.126 503.376 629.127 503.376 629.127 503.375L628.649 503.226M629.126 503.377C628.977 503.855 628.883 504.231 628.85 504.526C628.817 504.826 628.855 504.979 628.901 505.059C628.937 505.123 629.017 505.208 629.257 505.273C629.508 505.34 629.887 505.369 630.443 505.34M628.649 503.226C628.042 505.171 628.163 505.961 630.472 505.839M630.443 505.34C630.443 505.34 630.442 505.34 630.442 505.34L630.472 505.839M630.443 505.34C630.444 505.34 630.445 505.34 630.446 505.34L630.472 505.839" stroke="#5983AF"/>
<path d="M604.986 406.934L604.987 406.935C605.62 408.316 605.852 409.639 605.852 411.097C605.305 440.454 610.664 468.714 621.257 496.054L621.261 496.065L621.266 496.076C621.363 496.293 621.44 496.526 621.514 496.777C591.49 458.678 577.969 415.563 580.889 366.318C584.248 370.631 586.881 374.564 589.468 378.559C595.348 387.653 600.5 397.111 604.986 406.934Z" stroke="#5983AF"/>
<rect x="629.114" y="508.466" width="12.9767" height="294.941" stroke="#6088B2"/>
<rect x="599.945" y="804.407" width="71.9219" height="9.3306" stroke="#6088B2"/>
<path d="M671.456 816.365H599.783C599.783 816.365 598.266 844.423 601.877 854.649C606.704 868.322 618.313 873.645 633.51 874.095C649.536 874.569 661.9 868.674 669.667 854.649C673.369 847.964 671.456 816.365 671.456 816.365Z" stroke="#6088B2"/>
<path d="M578.5 33.5L575.613 38.5H581.387L578.5 33.5ZM578 38V87.5H579V38H578Z" fill="#5A83AF"/>
<path d="M608.5 121.5L607.006 115.923L602.923 120.006L608.5 121.5ZM579.646 93.3536L604.964 118.672L605.672 117.964L580.354 92.6464L579.646 93.3536Z" fill="#5A83AF"/>
<circle cx="580" cy="86" r="75.5" stroke="#5A83AF"/>
<circle cx="578.5" cy="90.5" r="3.5" fill="#5A83AF"/>
</svg>
