<svg width="329" height="65" viewBox="0 0 329 65" fill="none" xmlns="http://www.w3.org/2000/svg">
<path d="M61.337 12.1695L60.5026 8.70858C60.4131 8.32187 60.1054 8.02649 59.718 7.95515L32.6882 2.72334C32.5689 2.7029 32.4399 2.7029 32.3206 2.72334L5.27043 7.94514C4.89316 8.02649 4.58549 8.32186 4.49595 8.70857L3.66162 12.1695C0.861608 23.8352 2.74838 49.0991 29.9276 61.243L32.1025 62.21C32.2316 62.2709 32.3606 62.2913 32.4998 62.2913C32.639 62.2913 32.768 62.2609 32.897 62.21L35.0719 61.243C62.2504 49.0991 64.1377 23.8352 61.3379 12.1695L61.337 12.1695ZM34.2765 59.3701L32.4988 60.1639L30.7211 59.3701C4.75359 47.7759 2.92641 23.7433 5.58774 12.6581L6.26291 9.8284L32.4994 4.75934L58.7257 9.8284L59.4009 12.6581C62.0723 23.7432 60.2454 47.7764 34.2777 59.3701H34.2765Z" fill="#072051" stroke="#072051" stroke-width="0.2"/>
<path d="M32.5791 10L10.0791 14.5C10.0791 14.5 9.02931 31.8176 14.5791 40.5C19.3753 48.0034 32.5791 54.5 32.5791 54.5C32.5791 54.5 43.0791 52 50.0791 40.5C57.0791 29 54.0791 14.5 54.0791 14.5L32.5791 10Z" fill="#083389"/>
<path d="M29 27.25H21V33.2083H29V41H36V33.2083H44V27.25H36V19H29V27.25Z" fill="#6DB5DE"/>
<path d="M44.1901 25.4077H36.9809V18.0179C36.9809 17.4581 36.534 17 35.9878 17H29.1953C28.6491 17 28.2022 17.4581 28.2022 18.0179V25.4077H20.993C20.4469 25.4077 20 25.8657 20 26.4256V33.3883C20 33.9481 20.4469 34.4062 20.993 34.4062H28.2022V41.796C28.2022 42.3558 28.6491 42.8139 29.1953 42.8139H35.9878C36.534 42.8139 36.9809 42.3558 36.9809 41.796V34.4062H44.1901C44.7362 34.4062 45.1831 33.9481 45.1831 33.3883V26.4256C45.1831 25.8557 44.7362 25.4077 44.1901 25.4077V25.4077ZM43.197 32.3599H35.9878C35.4417 32.3599 34.9948 32.818 34.9948 33.3778V40.7676H30.1883V33.3778C30.1883 32.818 29.7414 32.3599 29.1953 32.3599H21.9861V27.4435H29.1953C29.7414 27.4435 30.1883 26.9854 30.1883 26.4256V19.0358H34.9948V26.4256C34.9948 26.9854 35.4417 27.4435 35.9878 27.4435H43.197V32.3599Z" fill="#072051" stroke="#072051" stroke-width="0.2"/>
<path d="M84.32 34.84H85.832C86.44 34.84 86.944 34.76 87.344 34.6C87.744 34.424 88.088 34.152 88.376 33.784L97.952 21.664C98.352 21.152 98.768 20.8 99.2 20.608C99.648 20.4 100.208 20.296 100.88 20.296H106.448L94.76 34.72C94.072 35.6 93.36 36.224 92.624 36.592C93.152 36.784 93.624 37.056 94.04 37.408C94.472 37.744 94.88 38.192 95.264 38.752L107.312 55H101.624C100.856 55 100.28 54.896 99.896 54.688C99.528 54.464 99.216 54.144 98.96 53.728L89.144 40.912C88.84 40.48 88.488 40.176 88.088 40C87.688 39.824 87.112 39.736 86.36 39.736H84.32V55H77.864V20.296H84.32V34.84ZM115.834 19.336V55H109.906V19.336H115.834ZM127.885 30.376V55H121.933V30.376H127.885ZM128.701 23.2C128.701 23.712 128.597 24.192 128.389 24.64C128.181 25.088 127.901 25.48 127.549 25.816C127.213 26.152 126.813 26.424 126.349 26.632C125.885 26.824 125.389 26.92 124.861 26.92C124.349 26.92 123.861 26.824 123.397 26.632C122.949 26.424 122.557 26.152 122.221 25.816C121.885 25.48 121.613 25.088 121.405 24.64C121.213 24.192 121.117 23.712 121.117 23.2C121.117 22.672 121.213 22.176 121.405 21.712C121.613 21.248 121.885 20.848 122.221 20.512C122.557 20.176 122.949 19.912 123.397 19.72C123.861 19.512 124.349 19.408 124.861 19.408C125.389 19.408 125.885 19.512 126.349 19.72C126.813 19.912 127.213 20.176 127.549 20.512C127.901 20.848 128.181 21.248 128.389 21.712C128.597 22.176 128.701 22.672 128.701 23.2ZM139.472 33.4C139.968 32.904 140.488 32.448 141.032 32.032C141.592 31.6 142.176 31.24 142.784 30.952C143.408 30.648 144.072 30.416 144.776 30.256C145.48 30.08 146.248 29.992 147.08 29.992C148.424 29.992 149.616 30.224 150.656 30.688C151.696 31.136 152.56 31.776 153.248 32.608C153.952 33.424 154.48 34.408 154.832 35.56C155.2 36.696 155.384 37.952 155.384 39.328V55H149.456V39.328C149.456 37.824 149.112 36.664 148.424 35.848C147.736 35.016 146.688 34.6 145.28 34.6C144.256 34.6 143.296 34.832 142.4 35.296C141.504 35.76 140.656 36.392 139.856 37.192V55H133.928V30.376H137.552C138.32 30.376 138.824 30.736 139.064 31.456L139.472 33.4ZM167.166 30.376V55H161.214V30.376H167.166ZM167.982 23.2C167.982 23.712 167.878 24.192 167.67 24.64C167.462 25.088 167.182 25.48 166.83 25.816C166.494 26.152 166.094 26.424 165.63 26.632C165.166 26.824 164.67 26.92 164.142 26.92C163.63 26.92 163.142 26.824 162.678 26.632C162.23 26.424 161.838 26.152 161.502 25.816C161.166 25.48 160.894 25.088 160.686 24.64C160.494 24.192 160.398 23.712 160.398 23.2C160.398 22.672 160.494 22.176 160.686 21.712C160.894 21.248 161.166 20.848 161.502 20.512C161.838 20.176 162.23 19.912 162.678 19.72C163.142 19.512 163.63 19.408 164.142 19.408C164.67 19.408 165.166 19.512 165.63 19.72C166.094 19.912 166.494 20.176 166.83 20.512C167.182 20.848 167.462 21.248 167.67 21.712C167.878 22.176 167.982 22.672 167.982 23.2ZM179.137 19.336V39.76H180.241C180.641 39.76 180.953 39.712 181.177 39.616C181.417 39.504 181.657 39.288 181.897 38.968L188.017 31.408C188.273 31.072 188.553 30.816 188.857 30.64C189.177 30.464 189.585 30.376 190.081 30.376H195.505L187.849 39.52C187.305 40.24 186.713 40.792 186.073 41.176C186.409 41.416 186.705 41.696 186.961 42.016C187.233 42.336 187.489 42.68 187.729 43.048L195.937 55H190.585C190.121 55 189.721 54.928 189.385 54.784C189.049 54.624 188.769 54.344 188.545 53.944L182.257 44.608C182.033 44.24 181.801 44 181.561 43.888C181.321 43.776 180.961 43.72 180.481 43.72H179.137V55H173.209V19.336H179.137ZM229.938 26.608C229.746 26.944 229.538 27.192 229.314 27.352C229.106 27.496 228.842 27.568 228.522 27.568C228.186 27.568 227.818 27.448 227.418 27.208C227.034 26.952 226.57 26.672 226.026 26.368C225.482 26.064 224.842 25.792 224.106 25.552C223.386 25.296 222.53 25.168 221.538 25.168C220.642 25.168 219.858 25.28 219.186 25.504C218.514 25.712 217.946 26.008 217.482 26.392C217.034 26.776 216.698 27.24 216.474 27.784C216.25 28.312 216.138 28.896 216.138 29.536C216.138 30.352 216.362 31.032 216.81 31.576C217.274 32.12 217.882 32.584 218.634 32.968C219.386 33.352 220.242 33.696 221.202 34C222.162 34.304 223.146 34.632 224.154 34.984C225.162 35.32 226.146 35.72 227.106 36.184C228.066 36.632 228.922 37.208 229.674 37.912C230.426 38.6 231.026 39.448 231.474 40.456C231.938 41.464 232.17 42.688 232.17 44.128C232.17 45.696 231.898 47.168 231.354 48.544C230.826 49.904 230.042 51.096 229.002 52.12C227.978 53.128 226.722 53.928 225.234 54.52C223.746 55.096 222.042 55.384 220.122 55.384C219.018 55.384 217.93 55.272 216.858 55.048C215.786 54.84 214.754 54.536 213.762 54.136C212.786 53.736 211.866 53.256 211.002 52.696C210.138 52.136 209.37 51.512 208.698 50.824L210.594 47.728C210.754 47.504 210.962 47.32 211.218 47.176C211.474 47.016 211.746 46.936 212.034 46.936C212.434 46.936 212.866 47.104 213.33 47.44C213.794 47.76 214.346 48.12 214.986 48.52C215.626 48.92 216.37 49.288 217.218 49.624C218.082 49.944 219.114 50.104 220.314 50.104C222.154 50.104 223.578 49.672 224.586 48.808C225.594 47.928 226.098 46.672 226.098 45.04C226.098 44.128 225.866 43.384 225.402 42.808C224.954 42.232 224.354 41.752 223.602 41.368C222.85 40.968 221.994 40.632 221.034 40.36C220.074 40.088 219.098 39.792 218.106 39.472C217.114 39.152 216.138 38.768 215.178 38.32C214.218 37.872 213.362 37.288 212.61 36.568C211.858 35.848 211.25 34.952 210.786 33.88C210.338 32.792 210.114 31.456 210.114 29.872C210.114 28.608 210.362 27.376 210.858 26.176C211.37 24.976 212.106 23.912 213.066 22.984C214.026 22.056 215.21 21.312 216.618 20.752C218.026 20.192 219.642 19.912 221.466 19.912C223.514 19.912 225.402 20.232 227.13 20.872C228.858 21.512 230.33 22.408 231.546 23.56L229.938 26.608ZM252.636 39.856C252.636 39.088 252.524 38.368 252.3 37.696C252.092 37.008 251.772 36.408 251.34 35.896C250.908 35.384 250.356 34.984 249.684 34.696C249.028 34.392 248.26 34.24 247.38 34.24C245.668 34.24 244.316 34.728 243.324 35.704C242.348 36.68 241.724 38.064 241.452 39.856H252.636ZM241.332 43.432C241.428 44.696 241.652 45.792 242.004 46.72C242.356 47.632 242.82 48.392 243.396 49C243.972 49.592 244.652 50.04 245.436 50.344C246.236 50.632 247.116 50.776 248.076 50.776C249.036 50.776 249.86 50.664 250.548 50.44C251.252 50.216 251.86 49.968 252.372 49.696C252.9 49.424 253.356 49.176 253.74 48.952C254.14 48.728 254.524 48.616 254.892 48.616C255.388 48.616 255.756 48.8 255.996 49.168L257.7 51.328C257.044 52.096 256.308 52.744 255.492 53.272C254.676 53.784 253.82 54.2 252.924 54.52C252.044 54.824 251.14 55.04 250.212 55.168C249.3 55.296 248.412 55.36 247.548 55.36C245.836 55.36 244.244 55.08 242.772 54.52C241.3 53.944 240.02 53.104 238.932 52C237.844 50.88 236.988 49.504 236.364 47.872C235.74 46.224 235.428 44.32 235.428 42.16C235.428 40.48 235.7 38.904 236.244 37.432C236.788 35.944 237.564 34.656 238.572 33.568C239.596 32.464 240.836 31.592 242.292 30.952C243.764 30.312 245.42 29.992 247.26 29.992C248.812 29.992 250.244 30.24 251.556 30.736C252.868 31.232 253.996 31.96 254.94 32.92C255.884 33.864 256.62 35.032 257.148 36.424C257.692 37.8 257.964 39.376 257.964 41.152C257.964 42.048 257.868 42.656 257.676 42.976C257.484 43.28 257.116 43.432 256.572 43.432H241.332ZM268.34 33.016C269.3 32.12 270.356 31.392 271.508 30.832C272.66 30.272 274.012 29.992 275.564 29.992C276.908 29.992 278.1 30.224 279.14 30.688C280.18 31.136 281.044 31.776 281.732 32.608C282.436 33.424 282.964 34.408 283.316 35.56C283.684 36.696 283.868 37.952 283.868 39.328V55H277.94V39.328C277.94 37.824 277.596 36.664 276.908 35.848C276.22 35.016 275.172 34.6 273.764 34.6C272.74 34.6 271.78 34.832 270.884 35.296C269.988 35.76 269.14 36.392 268.34 37.192V55H262.412V19.336H268.34V33.016ZM302.514 44.488C300.802 44.568 299.362 44.72 298.194 44.944C297.026 45.152 296.09 45.424 295.386 45.76C294.682 46.096 294.178 46.488 293.874 46.936C293.57 47.384 293.418 47.872 293.418 48.4C293.418 49.44 293.722 50.184 294.33 50.632C294.954 51.08 295.762 51.304 296.754 51.304C297.97 51.304 299.018 51.088 299.898 50.656C300.794 50.208 301.666 49.536 302.514 48.64V44.488ZM288.93 33.808C291.762 31.216 295.17 29.92 299.154 29.92C300.594 29.92 301.882 30.16 303.018 30.64C304.154 31.104 305.114 31.76 305.898 32.608C306.682 33.44 307.274 34.44 307.674 35.608C308.09 36.776 308.298 38.056 308.298 39.448V55H305.61C305.05 55 304.618 54.92 304.314 54.76C304.01 54.584 303.77 54.24 303.594 53.728L303.066 51.952C302.442 52.512 301.834 53.008 301.242 53.44C300.65 53.856 300.034 54.208 299.394 54.496C298.754 54.784 298.066 55 297.33 55.144C296.61 55.304 295.81 55.384 294.93 55.384C293.89 55.384 292.93 55.248 292.05 54.976C291.17 54.688 290.41 54.264 289.77 53.704C289.13 53.144 288.634 52.448 288.282 51.616C287.93 50.784 287.754 49.816 287.754 48.712C287.754 48.088 287.858 47.472 288.066 46.864C288.274 46.24 288.61 45.648 289.074 45.088C289.554 44.528 290.17 44 290.922 43.504C291.674 43.008 292.594 42.576 293.682 42.208C294.786 41.84 296.066 41.544 297.522 41.32C298.978 41.08 300.642 40.936 302.514 40.888V39.448C302.514 37.8 302.162 36.584 301.458 35.8C300.754 35 299.738 34.6 298.41 34.6C297.45 34.6 296.65 34.712 296.01 34.936C295.386 35.16 294.834 35.416 294.354 35.704C293.874 35.976 293.434 36.224 293.034 36.448C292.65 36.672 292.218 36.784 291.738 36.784C291.322 36.784 290.97 36.68 290.682 36.472C290.394 36.248 290.162 35.992 289.986 35.704L288.93 33.808ZM321.761 55.384C319.617 55.384 317.969 54.784 316.817 53.584C315.681 52.368 315.113 50.696 315.113 48.568V34.816H312.593C312.273 34.816 312.001 34.712 311.777 34.504C311.553 34.296 311.441 33.984 311.441 33.568V31.216L315.401 30.568L316.649 23.848C316.729 23.528 316.881 23.28 317.105 23.104C317.329 22.928 317.617 22.84 317.969 22.84H321.041V30.592H327.617V34.816H321.041V48.16C321.041 48.928 321.225 49.528 321.593 49.96C321.977 50.392 322.497 50.608 323.153 50.608C323.521 50.608 323.825 50.568 324.065 50.488C324.321 50.392 324.537 50.296 324.713 50.2C324.905 50.104 325.073 50.016 325.217 49.936C325.361 49.84 325.505 49.792 325.649 49.792C325.825 49.792 325.969 49.84 326.081 49.936C326.193 50.016 326.313 50.144 326.441 50.32L328.217 53.2C327.353 53.92 326.361 54.464 325.241 54.832C324.121 55.2 322.961 55.384 321.761 55.384Z" fill="#072051"/>
</svg>
